<svg t="1661949948025" class="icon" viewBox="0 0 1024 1024" version="1.1" xmlns="http://www.w3.org/2000/svg" p-id="69611" width="200" height="200"><path d="M598.099982 1023.99978H425.900018c-42.499991 0.1-77.099983-34.299993-77.299983-76.799983 0-7.899998 1.2-15.699997 3.599999-23.199996-106.499977-19.099996-195.099958-92.69998-233.39995-193.799958C106.000087 696.09985 99.500089 659.999858 99.500089 623.599866v-35.899992c-12.999997-6.199999-24.099995-15.899997-31.899994-28.099994-7.999998-12.399997-12.299997-26.899994-12.299997-41.699991v-6.199999c0.2-42.799991 34.999992-77.399983 77.799983-77.299983h757.699838c20.599996-0.1 40.399991 8.099998 54.999988 22.699995 14.599997 14.399997 22.799995 34.099993 22.799995 54.699988v6.199999c0 14.799997-4.299999 29.299994-12.299997 41.699991-7.799998 12.099997-18.899996 21.799995-31.899994 28.099994v35.999992c0 72.099985-25.699994 141.89997-72.599984 196.799958-46.19999 54.399988-109.899976 90.99998-180.199961 103.599977 2.399999 7.499998 3.599999 15.399997 3.599999 23.199995 0 42.299991-34.599993 76.699984-77.099983 76.599984z m-172.199964-95.29998c-10.199998 0-18.499996 8.299998-18.499996 18.499997s8.299998 18.499996 18.499996 18.499996h172.199964c10.199998 0 18.499996-8.299998 18.499996-18.499996s-8.299998-18.499996-18.499996-18.499997H425.900018zM158.200076 595.199872v28.399994c0.6 136.699971 111.699976 247.199947 248.399947 246.899947h210.699954c136.699971 0.3 247.799947-110.199976 248.399947-246.899947v-28.399994H158.200076z m-25.099995-102.499978c-10.499998 0-19.099996 8.499998-19.099995 18.999996v6.199999c0 10.499998 8.599998 18.999996 19.099995 18.999996h757.699838c10.499998 0 19.099996-8.499998 19.099996-18.999996v-6.199999c0-10.499998-8.599998-18.999996-19.099996-18.999996H133.100081z m2.9-111.999976c-11.499998 0-21.999995-6.699999-26.799994-17.199996-3.999999-8.899998-3.299999-19.099996 1.799999-27.399994h-9.899998C85.000092 336.199928 72.000095 323.099931 72.000095 306.999934s13.099997-29.199994 29.199993-29.199994h128.099973L764.099946 38.499992c14.799997-6.599999 32.099993-0.1 38.799992 14.599997 6.599999 14.599997 0.1 31.899993-14.499997 38.499991-0.1 0-0.1 0.1-0.2 0.1l-415.999911 186.19996h430.999907c16.099997 0 29.199994 13.099997 29.199994 29.199994s-13.099997 29.199994-29.199994 29.199994H241.900058l-93.79998 41.999991c-3.799999 1.6-7.899998 2.399999-12.099997 2.399999z m755.299838-44.49999c-7.799998 0-15.199997-3.099999-20.699996-8.599998-11.399998-11.299998-11.499998-29.599994-0.2-40.999992l0.2-0.2c5.599999-5.499999 12.999997-8.499998 20.799995-8.499998 1.9 0 3.799999 0.2 5.599999 0.6 1.9 0.4 3.699999 0.9 5.499999 1.7 1.8 0.7 3.499999 1.6 5.099999 2.699999 1.6 1.1 3.099999 2.3 4.499999 3.599999 11.399998 11.299998 11.499998 29.599994 0.2 40.999992l-0.2 0.2c-1.4 1.4-2.899999 2.599999-4.499999 3.599999-1.6 1.1-3.299999 2-5.099999 2.699999-1.8 0.7-3.599999 1.3-5.499999 1.7-1.9 0.3-3.799999 0.5-5.699998 0.5zM856.499926 58.299987c-3.899999 0-7.699998-0.7-11.199998-2.199999-3.599999-1.4-6.799999-3.599999-9.499998-6.299999-5.499999-5.499999-8.599998-12.899997-8.599998-20.599995 0-1.9 0.2-3.799999 0.6-5.699999 0.4-1.9 0.9-3.699999 1.7-5.499999 0.7-1.8 1.6-3.499999 2.699999-4.999999 2.1-3.199999 4.899999-5.899999 8.099998-7.999998 3.199999-2.1 6.799999-3.599999 10.599998-4.399999 1.8-0.4 3.699999-0.6 5.599999-0.6 7.799998 0 15.299997 3.099999 20.799996 8.499998 1.4 1.4 2.599999 2.799999 3.599999 4.399999 1.1 1.6 2 3.299999 2.699999 4.999999 0.7 1.8 1.3 3.599999 1.7 5.499999 0.4 1.9 0.6 3.799999 0.6 5.699999 0 7.699998-3.099999 15.099997-8.599998 20.599995-5.699999 5.499999-13.099997 8.599998-20.799996 8.599998z" fill="#ffffff" p-id="69612"></path></svg>