<?xml version="1.0" standalone="no"?><!DOCTYPE svg PUBLIC "-//W3C//DTD SVG 1.1//EN" "http://www.w3.org/Graphics/SVG/1.1/DTD/svg11.dtd"><svg t="1661926178113" class="icon" viewBox="0 0 1024 1024" version="1.1" xmlns="http://www.w3.org/2000/svg" p-id="4812" xmlns:xlink="http://www.w3.org/1999/xlink" width="200" height="200"><path d="M915.67 524.65h-28.56c-28.53 0-54.69-16.04-67.83-41.37-78.7-151.73-181.2-228.36-307.81-228.36-121.29 0-223.69 86.74-307.47 232.46-13.31 23.15-38.21 37.27-64.91 37.27h-31.82c-23.15 0-41.92 18.77-41.92 41.92v98.68c0 19.33 15.67 35 35 35h295.24V499.34c0-64 51.88-115.88 115.88-115.88 64 0 115.88 51.88 115.88 115.88v200.91h295.24c19.33 0 35-15.67 35-35v-98.68c0-23.15-18.77-41.92-41.92-41.92z" fill="#ffffff" p-id="4813"></path></svg>