<?xml version="1.0" standalone="no"?><!DOCTYPE svg PUBLIC "-//W3C//DTD SVG 1.1//EN" "http://www.w3.org/Graphics/SVG/1.1/DTD/svg11.dtd"><svg t="1661926737245" class="icon" viewBox="0 0 1024 1024" version="1.1" xmlns="http://www.w3.org/2000/svg" p-id="15352" xmlns:xlink="http://www.w3.org/1999/xlink" width="200" height="200"><path d="M407.288 487.656H163.952a31.776 31.776 0 0 1-27.52-15.88L14.76 261.008a31.824 31.824 0 0 1 0-31.768L136.432 18.504a31.784 31.784 0 0 1 27.52-15.888h243.336a31.76 31.76 0 0 1 27.52 15.888l121.688 210.736a31.784 31.784 0 0 1 0 31.768L434.808 471.776a31.776 31.776 0 0 1-27.52 15.88z m-225-63.528h206.664L492.32 245.128 388.952 66.16H182.288L78.968 245.128l103.32 179zM870.528 762.968H627.16a31.696 31.696 0 0 1-27.512-15.888L477.984 536.328a31.76 31.76 0 0 1 0-31.76l121.656-210.768a31.76 31.76 0 0 1 27.512-15.88h243.376c11.344 0 21.832 6.048 27.512 15.88l121.696 210.768a31.728 31.728 0 0 1 0 31.76l-121.696 210.752a31.712 31.712 0 0 1-27.512 15.888z m-225.032-63.536h206.704l103.368-178.984-103.368-179H645.496L542.168 520.448l103.328 178.984zM396.8 1021.376H153.464c-11.352 0-21.84-6.08-27.52-15.872L4.24 794.736a31.856 31.856 0 0 1 0-31.768l121.704-210.768a31.776 31.776 0 0 1 27.52-15.872H396.8c11.352 0 21.84 6.056 27.52 15.872l121.656 210.768a31.784 31.784 0 0 1 0 31.768L424.32 1005.504a31.84 31.84 0 0 1-27.52 15.872z m-225.008-63.536h206.672l103.336-179-103.336-178.992H171.792L68.448 778.84l103.344 179z" fill="#ffffff" p-id="15353"></path><path d="M798.176 656.312a32 32 0 0 1-16.008-4.344 31.84 31.84 0 0 1-11.384-43.504l63.384-108.368a31.696 31.696 0 0 1 43.464-11.384 31.792 31.792 0 0 1 11.384 43.464l-63.384 108.368a31.72 31.72 0 0 1-27.456 15.768zM340.128 382.24a31.56 31.56 0 0 1-16.008-4.336 31.784 31.784 0 0 1-11.384-43.464l63.408-108.36a31.752 31.752 0 0 1 43.464-11.384 31.792 31.792 0 0 1 11.384 43.464l-63.416 108.36a31.752 31.752 0 0 1-27.448 15.72zM336.024 918.008c-5.464 0-10.984-1.36-16.008-4.344a31.752 31.752 0 0 1-11.384-43.424l63.408-108.4a31.736 31.736 0 0 1 43.464-11.416 31.84 31.84 0 0 1 11.384 43.496l-63.408 108.4a31.696 31.696 0 0 1-27.456 15.688z" fill="#ffffff" p-id="15354"></path></svg>