<?xml version="1.0" standalone="no"?><!DOCTYPE svg PUBLIC "-//W3C//DTD SVG 1.1//EN" "http://www.w3.org/Graphics/SVG/1.1/DTD/svg11.dtd"><svg t="1661928658654" class="icon" viewBox="0 0 1024 1024" version="1.1" xmlns="http://www.w3.org/2000/svg" p-id="63122" xmlns:xlink="http://www.w3.org/1999/xlink" width="200" height="200"><path d="M491.294719 12.6541a23.272336 23.272336 0 0 1 39.842239-2.653046l1.559247 2.653046 302.540366 588.720281a23.272336 23.272336 0 0 1-17.989515 33.744887l-2.699591 0.162906h-45.450872l134.933003 213.360775a23.272336 23.272336 0 0 1-16.988805 35.583402L884.364472 884.365985H605.096442a23.272336 23.272336 0 0 1-2.722864-46.381766L605.096442 837.821313h237.005468l-134.933003-213.360775a23.272336 23.272336 0 0 1 16.988805-35.56013l2.676319-0.162906h49.570075L512.007098 74.209428 247.586818 588.737502h49.593348a23.272336 23.272336 0 0 1 20.991647 33.37253l-1.326523 2.327233L181.889014 837.821313H512.007098a23.272336 23.272336 0 0 1 23.10943 20.549473L535.279434 861.093649a23.272336 23.272336 0 0 1-20.549473 23.109429L512.007098 884.365985H139.649724a23.272336 23.272336 0 0 1-20.991647-33.349258l1.326523-2.373778 134.909731-213.360775H209.466732a23.272336 23.272336 0 0 1-21.806179-31.417654l1.117072-2.490139 302.540367-588.720281z" fill="#ffffff" p-id="63123"></path><path d="M325.828411 1024a23.272336 23.272336 0 0 1-2.722863-46.381765L325.828411 977.455328h164.069968v-218.853046l-106.214941-63.742928-2.257416-1.512702a23.272336 23.272336 0 0 1 26.20465-38.399354l82.267707 49.383896V535.280947a23.272336 23.272336 0 0 1 46.405038-2.722864l0.139634 2.722864v88.690872l44.682885-31.813283a23.272336 23.272336 0 0 1 29.276598 36.07212l-2.280689 1.861787-69.817007 49.686437-1.861787 1.140345V977.455328H698.185785a23.272336 23.272336 0 0 1 2.722863 46.381766L698.185785 1024H325.828411z" fill="#ffffff" p-id="63124"></path></svg>