<?xml version="1.0" standalone="no"?><!DOCTYPE svg PUBLIC "-//W3C//DTD SVG 1.1//EN" "http://www.w3.org/Graphics/SVG/1.1/DTD/svg11.dtd"><svg t="1661927169729" class="icon" viewBox="0 0 1024 1024" version="1.1" xmlns="http://www.w3.org/2000/svg" p-id="30628" xmlns:xlink="http://www.w3.org/1999/xlink" width="200" height="200"><path d="M511.935354 939.054545c-114.165657 0-221.478788-44.476768-302.157576-125.155555C129.09899 733.090909 84.622222 625.777778 84.622222 511.741414c0-227.038384 177.389899-414.383838 403.911111-426.666667 7.886869-0.387879 15.515152 2.715152 20.686869 8.662627s7.49899 13.834343 6.206061 21.591919c-4.008081 24.048485-6.076768 48.743434-6.076768 73.438384 0 126.319192 29.220202 221.737374 84.557576 275.781818 39.563636 38.658586 93.99596 57.406061 161.616161 55.854545 51.329293-1.163636 99.555556-21.20404 139.377778-57.793939 7.240404-6.723232 17.842424-8.662626 27.022222-5.042424 9.179798 3.620202 15.515152 12.282828 16.290909 22.109091 0.775758 10.60202 1.163636 21.462626 1.163637 32.064646 0 114.165657-44.476768 221.478788-125.155556 302.157576-80.808081 80.678788-188.121212 125.155556-302.286868 125.155555zM459.959596 139.636364C276.105051 164.977778 136.339394 322.715152 136.339394 511.741414 136.339394 718.868687 304.808081 887.337374 511.935354 887.337374c199.886869 0 363.830303-156.961616 374.949494-354.133334-39.563636 24.436364-83.781818 37.753535-130.327272 38.787879-82.10101 1.939394-149.074747-21.850505-198.981818-70.593939-34.909091-34.133333-61.155556-80.420202-77.834344-137.438384-14.739394-50.294949-22.238384-109.381818-22.238384-175.321212 0.129293-16.420202 0.905051-32.711111 2.456566-49.00202z m296.080808 406.496969z" fill="#ffffff" p-id="30629"></path><path d="M848.09697 367.709091H631.789899c-10.472727 0-19.911111-6.335354-23.919192-16.032323-4.008081-9.69697-1.680808-20.945455 5.818182-28.185859L751.127273 188.379798h-121.664647c-14.222222 0-25.858586-11.636364-25.858586-25.858586s11.636364-25.858586 25.858586-25.858586h184.888889c10.472727 0 19.911111 6.335354 23.919192 16.032323 4.008081 9.69697 1.680808 20.945455-5.818182 28.185859L695.014141 315.991919H848.09697c14.222222 0 25.858586 11.636364 25.858586 25.858586s-11.636364 25.858586-25.858586 25.858586z" fill="#ffffff" p-id="30630"></path></svg>