<?xml version="1.0" standalone="no"?><!DOCTYPE svg PUBLIC "-//W3C//DTD SVG 1.1//EN" "http://www.w3.org/Graphics/SVG/1.1/DTD/svg11.dtd"><svg t="1661926382410" class="icon" viewBox="0 0 1024 1024" version="1.1" xmlns="http://www.w3.org/2000/svg" p-id="10709" xmlns:xlink="http://www.w3.org/1999/xlink" width="200" height="200"><path d="M969.9 506c-0.1-10-0.6-20.1-1.4-30.9-0.8-10.9-2.1-21.8-3.9-33.5-0.6-4.3-1.3-8.7-2.2-12.9-1-5.9-2.3-11.6-3.5-17.1-12.6-56.2-35.4-108.9-67.9-156.6-31.9-47-71.7-87.2-118.3-119.5-24.6-17-50.8-31.7-77.9-43.4C637.3 66.8 575.7 54 512 54c-53.4 0-105.8 9.1-155.6 27.1-48.1 17.4-92.8 42.6-132.7 74.9-39.6 32.1-73.3 70.2-100.3 113.3-27.5 43.9-47.2 91.8-58.5 142.2-1.2 5.4-2.4 11.2-3.5 17-0.8 4.1-1.5 8.1-2.2 13-1.5 10.1-2.8 20.4-3.7 31.6-0.1 0.8-0.2 1.5-0.2 2-1 12.1-1.5 24.5-1.5 36.8 0 6.3 0.2 13.2 0.5 21l0.3 6.1c0.1 2.5 0.2 4.6 0.4 6.8 0.1 1.3 0.2 2.6 0.3 3.7 1.1 13.9 2.9 28.1 5.4 42.2 2.6 14.6 5.6 28 9.1 40.8 1.3 4.8 2.8 9.6 4.1 14.2v0.1c2 6.5 4.2 13.1 7.3 21.7l1.2 3c0.4 0.9 0.7 1.9 1 2.8l0.2 0.4 0.6 1.5c0.3 0.7 0.5 1.4 0.8 2.1 0.2 0.4 0.3 0.8 0.5 1.2 0.3 0.7 0.6 1.5 0.9 2.3 3.5 8.9 7.6 18.4 13.1 29.8 6.4 13.3 13.7 26.6 21.7 39.5 2.4 4 5.1 8.2 8.2 12.8 0.1 0.1 0.2 0.2 0.2 0.4l0.4 0.8 0.5 0.5c0 0.1 0.1 0.1 0.1 0.2 2.8 4.2 5.7 8.3 8.5 12.2 2.8 4 5.9 8.2 10 13.5 41.9 54.3 96.3 99.2 157.4 129.9C370.7 953.7 439.8 970 512 970c73.6 0 143.9-16.9 208.9-50.3 21.3-10.9 41.5-23.4 60.7-37.3 0.1-0.1 0.3-0.2 0.4-0.3 3-2.2 6.1-4.5 9.1-6.8l0.1 0.1c-0.4 0.3-0.7 0.6-0.9 0.7 0.3-0.2 0.6-0.4 1-0.8l2.5-2.1c0.2-0.2 0.4-0.4 0.7-0.5 0.1-0.1 0.3-0.2 0.4-0.3 0.2-0.2 0.5-0.4 0.7-0.6l0.6-0.4 0.1-0.1c0.1 0 0.1-0.1 0.2-0.2 1.2-0.9 2.3-1.9 3.5-2.8 0.1-0.1 0.2-0.1 0.2-0.2 0.2-0.1 0.3-0.2 0.5-0.4l3.3-2.7h0.1c1-0.8 2-1.7 3-2.5 0.2-0.2 0.4-0.3 0.6-0.5 0.2-0.2 0.4-0.4 0.7-0.6 0.2-0.2 0.5-0.4 0.8-0.7 18.4-15.7 35.6-33 51.5-51.7 5.5-6.4 10.2-12.2 14.3-17.6 4.5-5.8 8.6-11.5 12.1-16.4 2.4-3.2 4.6-6.6 6.5-9.5 0.5-0.6 0.8-1.2 1.1-1.5 0.5-0.8 1.1-1.6 1.6-2.4l3.7-5.6-0.1-0.1c9-14.3 17.3-29.2 24.7-44.5 4.5-9.4 8.3-18.1 11.8-26.6l0.1-0.3c0.3-0.8 0.6-1.7 1-2.5l1.2-3c1.3-3.4 2.6-6.9 3.9-10.5 4.5-12.3 8.3-24.4 11.5-36.1 1.8-6.5 3.4-13 4.9-19.7 1.6-6.9 2.8-13 3.8-18.6 0.1-0.3 0.1-0.6 0.2-1 2.5-13.9 4.4-28.5 5.6-43.4 0.1-1.2 0.2-2.5 0.3-3.9 0.3-4 0.5-8.1 0.7-12.1v-0.6c0.3-7.9 0.5-14.5 0.5-20.9-0.1-2.1-0.1-4.2-0.2-6.2zM898 518.2c-19.9-14-44.7-31.5-91.1-31.5-46.4 0-71.2 17.5-91 31.5l-0.2 0.2c-16.8 11.8-29 20.3-56.3 20.3-27.5 0-39.7-8.6-56.5-20.5-19.9-14-44.7-31.5-91.1-31.5s-71.2 17.5-91 31.5l-0.2 0.2c-16.8 11.8-29 20.3-56.3 20.3-27.5 0-39.7-8.6-56.5-20.5-19.9-14-44.7-31.5-91.1-31.5s-71.2 17.5-91 31.5l-0.2 0.2c-15.6 10.9-27.2 19.1-50.6 20.2v-0.6l-0.3-6c-0.3-7.5-0.5-14-0.5-20.1 0-11.8 0.5-23.6 1.4-35.2l0.1-1.2c0.9-11 2.1-21 3.6-30.7 0.3-1.7 0.5-3.2 0.8-4.7 26.4-2.1 40.7-12.1 57-23.5l0.3-0.2c19.4-13.7 39.5-27.9 79.5-27.9s60.1 14.2 79.5 27.9c18.3 12.9 34.2 24.1 68.1 24.1 33.6 0 49.5-11.1 67.8-24l0.3-0.2c19.4-13.7 39.5-27.9 79.5-27.9s60.1 14.2 79.5 27.9c18.3 12.9 34.2 24.1 68.1 24.1 33.6 0 49.5-11.1 67.8-24l0.3-0.2c19.4-13.7 39.5-27.9 79.5-27.9s60.1 14.2 79.5 27.9l0.1 0.1c16.4 11.6 30.8 21.7 57.5 23.7 0.2 1.5 0.5 3 0.7 4.5v0.1c1.7 11.1 3 21.5 3.7 31.9 0.8 10.5 1.3 20.2 1.4 29.8v0.5c0.1 1.5 0.1 3.4 0.1 5.1 0 6.1-0.2 12.5-0.5 20v0.6l-0.3 6c-24.1-1-35.7-9.2-51.4-20.3zM236.3 171.6c38.2-30.9 80.9-55.1 126.9-71.7C410.8 82.7 460.9 74 512 74c61 0 119.8 12.2 174.9 36.4 25.9 11.3 51 25.3 74.5 41.5 44.6 30.9 82.7 69.4 113.2 114.3 31 45.7 52.8 96 64.9 149.7 0.3 1.2 0.5 2.4 0.8 3.6-17.9-2.5-28.4-9.9-42-19.5l-0.1-0.1c-19.9-14-44.7-31.5-91.1-31.5s-71.2 17.5-91 31.5l-0.2 0.2c-16.8 11.8-29 20.3-56.3 20.3-27.5 0-39.7-8.6-56.5-20.5-19.9-14-44.7-31.5-91.1-31.5-46.4 0-71.2 17.5-91 31.5l-0.2 0.2c-16.8 11.8-29 20.3-56.3 20.3-27.5 0-39.7-8.6-56.5-20.5-19.9-14-44.7-31.5-91.1-31.5-46.4 0-71.2 17.5-91 31.5l-0.3 0.2c-13.5 9.5-24 16.8-41.6 19.3 0.3-1.2 0.5-2.4 0.8-3.5 21.1-95.5 75-182.3 151.5-244.3z m634.3 591.7c-3.4 4.8-7.4 10.4-11.7 15.9-3.9 5.1-8.4 10.6-13.7 16.8-13 15.3-26.9 29.5-41.6 42.7-0.5 0.5-1.1 1-1.6 1.5-0.7 0.6-1.3 1.1-1.9 1.7l-2.7 2.4-0.4 0.4c-1.2 1-2.4 2-3.5 3l-0.5 0.4-0.2 0.2-0.6 0.4-0.6 0.6-0.1 0.1-0.3 0.3c-0.9 0.8-1.9 1.5-2.8 2.3h-0.1l-4.6 3.8c-3.5 2.8-7.1 5.5-10.7 8.2l-0.1 0.1c-0.3 0.2-0.6 0.5-1 0.7-0.2 0.1-0.3 0.2-0.5 0.3-0.7 0.6-1.5 1.1-2.2 1.6l-0.5 0.3c-0.9 0.7-1.8 1.3-2.7 2-0.3 0.2-0.5 0.4-0.8 0.5h-1.1l-2.3 2.3c-2.1 1.4-4.1 2.8-6.3 4.3l-2.2 1.5c-3.1 2.1-6.1 4-8.9 5.7l-0.1 0.1c-2.5 1.6-5.2 3.3-7.8 4.8-0.4 0.2-0.8 0.5-1.3 0.7-0.4 0.3-0.8 0.5-1.1 0.6l-0.4 0.2c-0.4 0.2-0.9 0.5-1.3 0.8-0.4 0.2-0.8 0.5-1.1 0.6l-0.6 0.3-0.5 0.3c-0.2 0.1-0.3 0.2-0.5 0.3l-3.3 1.9c-0.5 0.3-0.9 0.5-1.4 0.8-0.6 0.3-1.1 0.6-1.6 0.9l-3.6 2v0.1c-2.8 1.5-5.5 3-8.3 4.4C649.6 933.8 582.4 950 512 950c-69.1 0-135.2-15.6-196.4-46.4-58.4-29.4-110.5-72.3-150.5-124.2-3.8-5-6.8-9-9.5-12.8l-3.6-5.1c15.4-9.6 34.3-17.8 64.8-17.8 40 0 60.1 14.2 79.5 27.9 18.3 12.9 34.2 24.1 68.1 24.1 33.6 0 49.5-11.1 67.8-24l0.3-0.2c19.4-13.7 39.5-27.9 79.5-27.9 39.9 0 60 14.1 79.4 27.6l0.2 0.1c18.4 13 34.3 24.2 68 24.2 33.6 0 49.5-11.1 67.8-24l0.3-0.2c19.4-13.7 39.5-27.9 79.6-27.9h0.4c30.3 0 49.5 8.4 64.5 17.8-0.4 0.6-0.9 1.2-1.3 1.8l-0.3 0.3z m49.2-91.4c-0.3 0.8-0.6 1.7-1 2.5-0.4 1-0.8 1.9-1.2 2.9-3.3 8.2-7 16.5-11.3 25.4-7 14.4-14.8 28.5-23.3 42-18.5-11.5-41.1-21.1-75.5-21.1h-0.5c-46.4 0-71.2 17.5-91 31.5l-0.2 0.2c-16.8 11.8-29 20.3-56.3 20.3-27.4 0-39-8.2-56.6-20.6l-0.2-0.1c-19.9-13.9-44.6-31.3-90.8-31.3-46.4 0-71.2 17.5-91 31.5l-0.2 0.2c-16.8 11.8-29 20.3-56.3 20.3-27.5 0-39.7-8.6-56.5-20.5-19.9-14-44.7-31.5-91.1-31.5-35.8 0-58.3 10.1-75.9 21.2-0.9-1.4-1.7-2.7-2.5-4-7.6-12.4-14.6-25.1-20.7-37.8-5.3-11-9.3-20.1-12.6-28.6l-0.2-0.5c-0.2-0.4-0.4-0.9-0.6-1.4-0.1-0.2-0.2-0.5-0.3-0.7 12.9-4.5 22.8-11.5 33.1-18.8 19.4-13.7 39.5-27.9 79.5-27.9s60.1 14.2 79.5 27.9c18.3 12.9 34.2 24.1 68.1 24.1 33.6 0 49.5-11.1 67.8-24l0.3-0.2c19.4-13.7 39.5-27.9 79.5-27.9s60.1 14.2 79.5 27.9c18.3 12.9 34.2 24.1 68.1 24.1 33.6 0 49.5-11.1 67.8-24l0.3-0.2c19.4-13.7 39.5-27.9 79.5-27.9s60.1 14.2 79.5 27.9l1 0.7c10.2 7 19.9 13.7 32.4 18.1v0.1l-0.1 0.2z m23.2-81.7c-1 5.4-2.2 11.3-3.7 17.9-1.5 6.4-3 12.7-4.7 18.8v0.1c-2.2 8.4-4.9 17.1-7.9 25.8-10.1-3.5-18.2-9.1-27.9-15.8l-0.8-0.6c-19.9-14-44.7-31.5-91-31.5-46.4 0-71.2 17.5-91 31.5l-0.2 0.2c-16.8 11.8-29 20.3-56.3 20.3-27.5 0-39.7-8.6-56.5-20.5-19.9-14-44.7-31.5-91.1-31.5-46.4 0-71.2 17.5-91 31.5l-0.2 0.2c-16.8 11.8-29 20.3-56.3 20.3-27.5 0-39.7-8.6-56.5-20.5-19.9-14-44.7-31.5-91.1-31.5s-71.2 17.5-91.1 31.6c-9.8 6.9-18 12.7-28.4 16.3-1.5-4.3-2.7-8.2-3.9-12-1.4-4.6-2.8-9.3-4-13.8-3.4-12.2-6.2-25-8.7-39-1.8-9.9-3.2-19.8-4.2-29.6 28.7-1.5 43.5-11.9 60.5-23.8l0.3-0.2c19.4-13.7 39.5-27.9 79.5-27.9s60.1 14.2 79.5 27.9c18.3 12.9 34.2 24.1 68.1 24.1 33.6 0 49.5-11.1 67.8-24l0.3-0.2c19.4-13.7 39.5-27.9 79.5-27.9s60.1 14.2 79.5 27.9c18.3 12.9 34.2 24.1 68.1 24.1 33.6 0 49.5-11.1 67.8-24l0.3-0.2c19.4-13.7 39.5-27.9 79.5-27.9s60.1 14.2 79.5 27.9c17 12 31.9 22.5 61.1 24-1.1 10.5-2.5 20.8-4.3 30.7-0.3 0.6-0.4 0.9-0.5 1.3z" p-id="10710" fill="#ffffff"></path></svg>