<?xml version="1.0" standalone="no"?><!DOCTYPE svg PUBLIC "-//W3C//DTD SVG 1.1//EN" "http://www.w3.org/Graphics/SVG/1.1/DTD/svg11.dtd"><svg t="1661949586281" class="icon" viewBox="0 0 1024 1024" version="1.1" xmlns="http://www.w3.org/2000/svg" p-id="9218" xmlns:xlink="http://www.w3.org/1999/xlink" width="200" height="200"><path d="M732.250113 878.069619H184.947292a23.129071 23.129071 0 0 1-20.062233-11.564535C91.855976 739.998011 10.648659 423.666436 0.873112 227.899936a23.320748 23.320748 0 0 1 23.192963-24.40692h869.129147a23.192963 23.192963 0 0 1 23.192964 24.343027c-9.711654 195.830393-90.982864 512.22586-164.011948 638.669041a23.448533 23.448533 0 0 1-20.126125 11.564535z m-533.629834-46.385927h520.02074c64.403601-121.267891 135.899265-399.519559 149.891713-581.804749H48.792458c13.928556 182.285191 85.42422 460.472966 149.827821 581.804749z" fill="#ffffff" p-id="9219"></path><path d="M820.166139 566.338302l7.539311-32.010123c18.401029-77.62934 32.45737-154.619756 40.699497-222.793012l3.386301-27.218188 26.323694 7.858773c73.22076 21.787329 122.417955 74.370825 122.417955 130.787867 0 68.939965-72.070696 129.062771-167.653818 139.732813l-32.71294 3.64187z m90.471725-219.917851a2128.257876 2128.257876 0 0 1-29.901672 163.884163c54.436377-15.014728 93.410778-49.963905 93.410778-87.340995 0-29.07107-25.045845-58.397709-63.509106-76.543168zM758.318237 997.229059H158.879168a23.129071 23.129071 0 1 1 0-46.322034h599.502962a23.129071 23.129071 0 1 1-0.063893 46.322034zM201.687117 160.110035a23.192963 23.192963 0 0 1-23.192963-23.192964V24.913587a23.192963 23.192963 0 1 1 46.385926 0v112.003484a23.256856 23.256856 0 0 1-23.192963 23.192964zM448.887049 160.110035a23.192963 23.192963 0 0 1-23.192964-23.192964V24.913587a23.192963 23.192963 0 1 1 46.385927 0v112.003484c0 12.778492-10.350579 23.192963-23.192963 23.192964zM696.08698 160.110035a23.065178 23.065178 0 0 1-23.129071-23.192964V24.913587a23.065178 23.065178 0 1 1 46.258142 0v112.003484c0 12.778492-10.350579 23.192963-23.129071 23.192964z" fill="#ffffff" p-id="9220"></path></svg>