<?xml version="1.0" standalone="no"?><!DOCTYPE svg PUBLIC "-//W3C//DTD SVG 1.1//EN" "http://www.w3.org/Graphics/SVG/1.1/DTD/svg11.dtd"><svg t="1661928732014" class="icon" viewBox="0 0 1024 1024" version="1.1" xmlns="http://www.w3.org/2000/svg" p-id="65686" xmlns:xlink="http://www.w3.org/1999/xlink" width="200" height="200"><path d="M710.656 923.648c-26.624 0-53.248-11.264-80.896-35.84-27.648-23.552-54.272-57.344-84.992-96.256-37.888-49.152-81.92-103.424-137.216-153.6-56.32-50.176-116.736-86.016-169.984-117.76-52.224-31.744-97.28-58.368-124.928-91.136-59.392-68.608-11.264-139.264 30.72-186.368C306.176 59.392 568.32 53.248 768 228.352c101.376 88.064 160.768 203.776 168.96 323.584 7.168 108.544-28.672 211.968-104.448 296.96-40.96 48.128-77.824 71.68-114.688 73.728-2.048 1.024-5.12 1.024-7.168 1.024zM451.584 142.336c-103.424 0-201.728 43.008-276.48 126.976-64.512 72.704-53.248 106.496-30.72 133.12 23.552 27.648 65.536 53.248 114.688 82.944 54.272 32.768 116.736 69.632 176.128 122.88 59.392 52.224 103.424 108.544 142.336 158.72 29.696 37.888 55.296 69.632 78.848 91.136 21.504 18.432 38.912 26.624 57.344 25.6 24.576-2.048 53.248-21.504 87.04-60.416 67.584-76.8 100.352-168.96 94.208-267.264-7.168-109.568-62.464-215.04-154.624-295.936-88.064-78.848-190.464-117.76-288.768-117.76zM159.744 256z" p-id="65687" fill="#ffffff"></path><path d="M304.128 919.552c-35.84 0-70.656-15.36-104.448-45.056-36.864-31.744-56.32-67.584-59.392-106.496-2.048-38.912 12.288-76.8 45.056-112.64l1.024-1.024L306.176 532.48c8.192-8.192 20.48-8.192 28.672 0 8.192 8.192 8.192 20.48 0 28.672L216.064 683.008c-24.576 27.648-35.84 55.296-34.816 82.944 2.048 27.648 17.408 53.248 45.056 78.848 27.648 24.576 56.32 36.864 82.944 34.816 27.648-2.048 53.248-16.384 77.824-45.056l105.472-134.144c7.168-9.216 19.456-10.24 28.672-3.072 9.216 7.168 10.24 19.456 3.072 28.672L419.84 859.136s0 1.024-1.024 1.024c-31.744 36.864-68.608 56.32-106.496 59.392h-8.192z" p-id="65688" fill="#ffffff"></path><path d="M203.776 859.136c-3.072 0-5.12-1.024-7.168-3.072-52.224-52.224 16.384-122.88 72.704-179.2 9.216-9.216 18.432-18.432 25.6-26.624 4.096-4.096 10.24-4.096 14.336-1.024 4.096 4.096 4.096 10.24 1.024 14.336-8.192 8.192-16.384 17.408-26.624 26.624-60.416 61.44-107.52 114.688-72.704 150.528 4.096 4.096 4.096 10.24 0 14.336-2.048 3.072-4.096 4.096-7.168 4.096z" p-id="65689" fill="#ffffff"></path></svg>