<?xml version="1.0" standalone="no"?><!DOCTYPE svg PUBLIC "-//W3C//DTD SVG 1.1//EN" "http://www.w3.org/Graphics/SVG/1.1/DTD/svg11.dtd"><svg t="1661927099355" class="icon" viewBox="0 0 1024 1024" version="1.1" xmlns="http://www.w3.org/2000/svg" p-id="28540" xmlns:xlink="http://www.w3.org/1999/xlink" width="200" height="200"><path d="M454.528 58.646c-57.718 0-104.67 46.948-104.67 104.665 0 57.723 46.952 104.67 104.67 104.67 57.73 0 104.692-46.947 104.692-104.67-0.015-57.717-46.983-104.665-104.692-104.665z m0 172.577c-37.442 0-67.912-30.47-67.912-67.912 0-37.441 30.47-67.906 67.912-67.906 37.441 0 67.918 30.465 67.935 67.906 0 37.442-30.475 67.912-67.935 67.912zM726.61 852.646L558.622 609.987v-69.123l0.832 0.822c2.871 2.976 6.194 5.367 9.65 7.042l50.153 25.101c17.868 8.942 39.418 9.609 57.473 2.069 18.55-7.659 32.861-23.012 39.29-42.179 10.746-32.519-4.19-68.579-34.77-83.896l-49.956-24.962-78.938-118.427a20.455 20.455 0 0 0-3.031-3.475 37.803 37.803 0 0 0-4.071-3.913c-1.942-1.626-3.932-2.96-5.771-3.932a32.68 32.68 0 0 0-6.353-2.669 36.835 36.835 0 0 0-6.044-1.35c-1.571-0.344-3.47-0.599-4.836-0.599H396.072a36.432 36.432 0 0 0-23.292 8.429L246.602 404.09c-3.924 3.281-7.05 7.229-9.23 11.673l-52.175 104.328c-15.017 29.921-2.839 66.525 27.178 81.621 8.033 4.035 17.172 6.175 26.439 6.175 21.826 0 42.096-11.235 52.9-29.273l46.024-76.663 21.97-10.991v124.536l-31.894 95.692h-89.471c-37.45 0-67.907 30.465-67.907 67.906 0 37.462 30.457 67.943 67.907 67.943h178.75c11.421 0 22.309-5.467 29.08-14.563l39.333-52.405 134.555 155.258c12.787 14.825 31.38 23.32 51.017 23.32 18.128 0 35.109-7.042 47.75-19.763 23.128-23.065 26.391-59.346 7.782-86.238z m-33.801 60.269c-11.967 12.033-33.722 11.348-44.938-1.628L498.373 738.778a18.394 18.394 0 0 0-13.893-6.341h-0.64a18.484 18.484 0 0 0-14.063 7.335l-52.684 70.504h-178.75c-17.174 0-31.149-13.982-31.149-31.184 0-17.181 13.975-31.148 31.149-31.148h102.719a18.384 18.384 0 0 0 17.441-12.566l37.024-111.097c0.623-1.883 0.938-3.83 0.938-5.816V461.208c0-6.375-3.3-12.29-8.719-15.64-5.429-3.336-12.191-3.677-17.885-0.807l-53.358 26.688a18.504 18.504 0 0 0-7.541 6.995l-48.784 81.279c-5.823 9.691-21.109 14.261-31.306 9.133-11.899-5.971-16.747-20.452-10.804-32.298l52.075-104.224 125.929-105.08h125.665c0.435 0.549 0.864 1.027 1.282 1.437l80.399 120.619a18.34 18.34 0 0 0 7.079 6.257l54.306 27.134c14.361 7.197 21.366 24.177 16.328 39.407a32.587 32.587 0 0 1-18.516 19.834c-8.443 3.507-18.5 3.213-26.913-1.011l-50.058-25.028-32.407-32.396c-5.268-5.266-13.175-6.806-20.028-3.983a18.35 18.35 0 0 0-11.347 16.976v119.233c0 3.746 1.137 7.386 3.268 10.466l171.251 247.376c8.48 12.258 7.004 28.789-3.572 39.34z" fill="#ffffff" p-id="28541"></path><path d="M487.875 619.7l-0.155-3.985V496.498c0-39.818 40.983-62.728 73.584-48.266l0.505 0.241-58.033-87.093H408.57l-77.561 64.626 23.601-11.776c33.998-17.013 73.845 6.631 75.928 43.939l0.087 3.039v157.258a53.05 53.05 0 0 1-2.691 16.603l-37.052 111.096c-4.077 12.241-12.396 22.226-22.968 28.534l-2.625 1.437h34.508l42.667-56.866c19.396-25.849 57.052-28.037 79.372-5.384l2.333 2.53L633.03 842.03 497.073 645.616a52.475 52.475 0 0 1-9.198-25.916z" fill="#ffffff" p-id="28542"></path></svg>