<?xml version="1.0" standalone="no"?><!DOCTYPE svg PUBLIC "-//W3C//DTD SVG 1.1//EN" "http://www.w3.org/Graphics/SVG/1.1/DTD/svg11.dtd"><svg t="1661926595404" class="icon" viewBox="0 0 1024 1024" version="1.1" xmlns="http://www.w3.org/2000/svg" p-id="13623" xmlns:xlink="http://www.w3.org/1999/xlink" width="200" height="200"><path d="M652.609829 139.849143a77.238857 77.238857 0 0 0-54.710858-22.528c-20.245943 0-39.936 8.250514-54.710857 22.528l-43.2128 43.973486a77.531429 77.531429 0 0 0-10.942171 95.056457L71.036343 447.019886a92.277029 92.277029 0 0 0-53.628343 68.139885 93.3888 93.3888 0 0 0 25.746286 82.944l391.694628 387.949715a89.9072 89.9072 0 0 0 61.293715 26.916571h2.194285c6.5536 0 12.580571-0.585143 18.578286-1.667657a92.715886 92.715886 0 0 0 67.291429-56.583314l164.132571-413.198629c30.661486 20.8896 71.68 16.471771 97.952914-9.888914l43.2128-43.4176a77.882514 77.882514 0 0 0 22.440229-54.944914 79.872 79.872 0 0 0-22.440229-54.944915l-236.895085-238.445714z m-123.114058 791.786057a28.964571 28.964571 0 0 1-22.410971 18.695314h-7.109486a29.842286 29.842286 0 0 1-20.801828-8.777143L86.893714 553.5744a30.076343 30.076343 0 0 1-8.192-27.472457c2.165029-9.888914 8.747886-18.666057 18.051657-22.528l191.488-77.472914c129.111771 42.861714 257.667657 1.6384 386.779429 139.556571l-145.525029 365.948343z m317.322972-487.365486l-43.768686 43.944229a15.242971 15.242971 0 0 1-10.942171 4.388571 16.237714 16.237714 0 0 1-10.942172-4.388571l-54.710857-54.944914-43.768686 111.0016 3.832686-9.362286c-92.452571-92.277029-186.543543-104.389486-271.915886-114.805029-27.355429-3.306057-53.599086-6.612114-79.872-12.639085l260.973715-104.945372-52.516572-53.306514a15.389257 15.389257 0 0 1-4.388571-11.000686 16.384 16.384 0 0 1 4.388571-10.971428l43.2128-43.4176a15.242971 15.242971 0 0 1 10.942172-4.388572c3.832686 0 8.192 1.6384 10.942171 4.388572l238.006857 238.445714c2.720914 2.779429 4.388571 6.612114 4.388572 11.000686a13.077943 13.077943 0 0 1-3.861943 11.000685z m-323.320686 229.112686a77.238857 77.238857 0 0 0 77.121829-77.472914 77.238857 77.238857 0 0 0-77.121829-77.472915 77.238857 77.238857 0 0 0-77.151086 77.472915c0.555886 42.861714 35.0208 77.472914 77.151086 77.472914z m0-123.611429c25.717029 0 45.933714 20.860343 45.933714 46.138515a45.992229 45.992229 0 1 1-91.896685 0c0-25.278171 20.772571-46.138514 45.933714-46.138515zM923.4432 24.488229a77.238857 77.238857 0 0 0-77.151086 77.472914 77.238857 77.238857 0 0 0 77.121829 77.472914A77.238857 77.238857 0 0 0 1000.594286 101.961143 77.238857 77.238857 0 0 0 923.413943 24.488229z m0 123.611428c-25.746286 0-45.962971-20.860343-45.962971-46.138514a45.992229 45.992229 0 1 1 91.896685 0c0.555886 25.8048-20.245943 46.138514-45.933714 46.138514zM261.9392 549.770971c0 24.722286 14.774857 47.806171 37.741714 57.1392 22.996114 9.362286 49.239771 4.388571 67.291429-13.165714a61.8496 61.8496 0 0 0 13.165714-67.584 60.884114 60.884114 0 0 0-56.905143-37.946514c-33.3824 0-61.293714 27.501714-61.293714 61.557028z m61.820343-30.778514c16.969143 0 30.632229 13.750857 30.632228 30.778514a30.661486 30.661486 0 1 1-61.264457 0c0-8.250514 3.2768-15.945143 8.777143-21.972114 5.997714-5.500343 13.663086-8.8064 21.855086-8.8064z" fill="#ffffff" p-id="13624"></path></svg>