<svg t="1667312529569" class="icon" viewBox="0 0 1024 1024" version="1.1" xmlns="http://www.w3.org/2000/svg" p-id="3514"
    width="200" height="200">
    <path
        d="M889.6 803.84H131.84C64 803.84 8.96 748.8 8.96 680.96c0-47.36 26.88-88.32 66.56-110.08 1.28-130.56 111.36-235.52 243.2-225.28 53.76-69.12 136.96-110.08 225.28-110.08 131.84 0 244.48 89.6 275.2 215.04 57.6 11.52 102.4 57.6 112.64 115.2 47.36 17.92 80.64 62.72 80.64 115.2 1.28 67.84-55.04 122.88-122.88 122.88zM302.08 410.88c-89.6 0-161.28 72.96-161.28 161.28 0 6.4 0 11.52 1.28 16.64l2.56 28.16-26.88 7.68c-25.6 6.4-43.52 29.44-43.52 56.32 0 32 25.6 57.6 57.6 57.6h757.76c32 0 57.6-25.6 57.6-57.6 0-28.16-21.76-53.76-49.92-57.6l-28.16-3.84V588.8c0-40.96-34.56-75.52-76.8-76.8h-28.16l-3.84-28.16c-16.64-106.24-107.52-184.32-216.32-184.32-72.96 0-142.08 37.12-181.76 98.56l-11.52 17.92-20.48-3.84c-10.24 0-19.2-1.28-28.16-1.28z"
        p-id="3515"></path>
</svg>