<svg t="1667312466545" class="icon" viewBox="0 0 1024 1024" version="1.1" xmlns="http://www.w3.org/2000/svg" p-id="3373"
    width="200" height="200">
    <path
        d="M597.333333 768h149.333334c85.333333-8.533333 149.333333-81.066667 149.333333-170.666667 0-93.866667-76.8-170.666667-170.666667-170.666666h-4.266666c-21.333333-98.133333-106.666667-170.666667-209.066667-170.666667-119.466667 0-213.333333 93.866667-213.333333 213.333333-72.533333 8.533333-128 72.533333-128 149.333334C170.666667 699.733333 238.933333 768 320 768H597.333333z m149.333334 42.666667h-426.666667C213.333333 810.666667 128 725.333333 128 618.666667c0-85.333333 55.466667-157.866667 128-183.466667C273.066667 311.466667 379.733333 213.333333 512 213.333333c110.933333 0 209.066667 72.533333 243.2 170.666667 102.4 12.8 183.466667 102.4 183.466667 213.333333s-85.333333 200.533333-192 213.333334z"
        p-id="3374"></path>
</svg>