<svg t="1667312554100" class="icon" viewBox="0 0 1024 1024" version="1.1" xmlns="http://www.w3.org/2000/svg" p-id="3655"
    width="200" height="200">
    <path
        d="M756.796332 822.753533c-193.990203 0-513.657756-1.028423-519.52744-1.047866-85.077677-0.032746-156.545382-64.222697-169.966043-152.660912-10.446933-68.879764 18.039865-160.807453 126.932947-209.6693-25.361621-107.987457 35.511795-198.967564 117.15014-237.274008 51.03228-23.940249 107.950617-27.396977 160.295799-9.719362 45.986357 15.527648 86.035492 46.451962 117.567649 90.415242 48.338938-27.27725 105.61134-29.169343 153.049768-2.598174 41.021276 22.972201 78.652338 72.29863 74.602092 146.07082 104.397698 31.426757 146.926304 121.667014 141.321656 199.550849C952.086134 731.039715 886.437971 822.753533 756.796332 822.753533zM404.474055 278.905174c-21.654182 0-42.277896 5.172813-60.080354 13.522991-55.926754 26.239618-100.438527 92.307336-65.99404 175.349657 4.187369 10.089799 3.926426 21.474081-0.707105 31.364335-4.637624 9.890254-13.226233 17.368576-23.658839 20.606317-115.898637 35.988656-113.427352 114.450658-109.909226 137.64594 6.53074 43.048445 40.646746 86.627986 93.210915 86.627986 0.042979 0 0.085958 0 0.127913 0 3.220345 0.00921 324.651055 1.047866 519.334036 1.047866 80.397075 0 120.17094-52.649104 123.926474-104.82544 3.870144-53.734832-29.53978-113.354698-112.901373-125.412314-10.760065-1.559519-20.37812-7.553023-26.50977-16.528442-6.136767-8.971325-8.228405-20.10899-5.771447-30.697139 10.722202-46.201252-0.654916-82.516342-31.213909-99.633185-25.186635-14.101159-65.435315-13.703093-98.611925 18.942421-8.759501 8.624425-21.042245 12.583596-33.230845 10.705829-12.144598-1.892093-22.677489-9.41544-28.401864-20.293185C505.71383 304.434617 452.570469 278.905174 404.474055 278.905174z"
        p-id="3656"></path>
</svg>