<?xml version="1.0" standalone="no"?>
<!DOCTYPE svg PUBLIC "-//W3C//DTD SVG 1.1//EN" "http://www.w3.org/Graphics/SVG/1.1/DTD/svg11.dtd"><svg t="1678177791865"
    class="icon" viewBox="0 0 1024 1024" version="1.1" xmlns="http://www.w3.org/2000/svg" p-id="1784"
    xmlns:xlink="http://www.w3.org/1999/xlink" width="200" height="200">
    <path
        d="M948.48 540.074667m-20.309333 0a20.309333 20.309333 0 1 0 40.618666 0 20.309333 20.309333 0 1 0-40.618666 0Z"
        p-id="1785"></path>
    <path
        d="M532.650667 839.509333a30.72 30.72 0 0 1-26.538667-14.762666c-19.2-8.533333-93.098667-21.077333-212.309333-21.077334s-193.194667 12.885333-212.394667 21.077334a30.72 30.72 0 0 1-26.538667 14.762666A29.525333 29.525333 0 0 1 24.576 810.666667c0-15.957333 0-64.597333 269.226667-64.597334S563.2 794.794667 563.2 810.666667a29.525333 29.525333 0 0 1-30.549333 28.842666z"
        p-id="1786"></path>
    <path
        d="M733.269333 916.650667c-266.24 0-266.24-48.554667-266.24-64.512a29.44 29.44 0 0 1 30.037334-28.842667 30.122667 30.122667 0 0 1 26.197333 14.848c18.944 8.533333 92.074667 20.992 210.005333 20.992s190.976-12.885333 209.92-20.992a30.293333 30.293333 0 0 1 26.282667-14.848 29.354667 29.354667 0 0 1 29.952 28.842667c0 15.957333 0 64.512-266.154667 64.512z"
        p-id="1787"></path>
    <path
        d="M264.362667 560.384m-40.618667 0a40.618667 40.618667 0 1 0 81.237333 0 40.618667 40.618667 0 1 0-81.237333 0Z"
        p-id="1788"></path>
    <path
        d="M73.642667 306.346667m-20.309334 0a20.309333 20.309333 0 1 0 40.618667 0 20.309333 20.309333 0 1 0-40.618667 0Z"
        p-id="1789"></path>
    <path d="M690.688 560.384m-40.618667 0a40.618667 40.618667 0 1 0 81.237334 0 40.618667 40.618667 0 1 0-81.237334 0Z"
        p-id="1790"></path>
    <path
        d="M499.968 306.346667m-20.309333 0a20.309333 20.309333 0 1 0 40.618666 0 20.309333 20.309333 0 1 0-40.618666 0Z"
        p-id="1791"></path>
    <path
        d="M309.077333 326.656m-40.618666 0a40.618667 40.618667 0 1 0 81.237333 0 40.618667 40.618667 0 1 0-81.237333 0Z"
        p-id="1792"></path>
    <path
        d="M499.882667 540.074667m-20.309334 0a20.309333 20.309333 0 1 0 40.618667 0 20.309333 20.309333 0 1 0-40.618667 0Z"
        p-id="1793"></path>
    <path
        d="M757.674667 326.656m-40.618667 0a40.618667 40.618667 0 1 0 81.237333 0 40.618667 40.618667 0 1 0-81.237333 0Z"
        p-id="1794"></path>
    <path
        d="M210.346667 147.882667m-40.618667 0a40.618667 40.618667 0 1 0 81.237333 0 40.618667 40.618667 0 1 0-81.237333 0Z"
        p-id="1795"></path>
    <path
        d="M636.672 147.882667m-40.618667 0a40.618667 40.618667 0 1 0 81.237334 0 40.618667 40.618667 0 1 0-81.237334 0Z"
        p-id="1796"></path>
    <path
        d="M445.781333 127.658667m-20.309333 0a20.309333 20.309333 0 1 0 40.618667 0 20.309333 20.309333 0 1 0-40.618667 0Z"
        p-id="1797"></path>
    <path
        d="M894.378667 127.658667m-20.309334 0a20.309333 20.309333 0 1 0 40.618667 0 20.309333 20.309333 0 1 0-40.618667 0Z"
        p-id="1798"></path>
</svg>