<?xml version="1.0" standalone="no"?><!DOCTYPE svg PUBLIC "-//W3C//DTD SVG 1.1//EN" "http://www.w3.org/Graphics/SVG/1.1/DTD/svg11.dtd"><svg t="1678177022293" class="icon" viewBox="0 0 1024 1024" version="1.1" xmlns="http://www.w3.org/2000/svg" p-id="1591" xmlns:xlink="http://www.w3.org/1999/xlink" width="200" height="200"><path d="M256.96768 683.33568h497.3312c111.83104 0 202.81344-91.0848 202.81344-203.04384 0-111.40608-90.09664-202.10688-201.16992-203.00288-10.12736-128.68608-117.92384-230.31296-249.07264-230.31296-131.13856 0-238.9248 101.6064-249.07264 230.272h-0.82944c-111.83104 0-202.81344 91.0848-202.81344 203.04384s90.9824 203.04384 202.81344 203.04384z m0-359.1936h19.79392c7.39328 0 13.90592-3.49184 18.19648-8.84224 5.34528-4.29568 8.83712-10.81344 8.83712-18.21184 0-112.05632 91.08992-203.21792 203.06944-203.21792s203.06944 91.15648 203.06944 203.21792c0 0.61952 0.13312 1.19808 0.18432 1.80224-0.04608 0.60416-0.18432 1.18784-0.18432 1.80224a23.43936 23.43936 0 0 0 23.42912 23.44448h20.93056c85.99552 0 155.9552 70.04672 155.9552 156.14976s-69.95968 156.14976-155.9552 156.14976H256.96768c-85.99552 0-155.9552-70.04672-155.9552-156.14976s69.95968-156.14464 155.9552-156.14464z m180.02432 491.33568a27.97056 27.97056 0 0 0-27.92448-27.94496H27.92448c-15.39584 0-27.92448 12.53888-27.92448 27.94496s12.52864 27.94496 27.92448 27.94496h381.14304a27.97056 27.97056 0 0 0 27.92448-27.94496z m559.08352-27.2384h-381.15328c-15.39584 0-27.91424 12.53888-27.91424 27.94496s12.5184 27.93472 27.91424 27.93472h381.15328a27.96032 27.96032 0 0 0 27.92448-27.93472 27.97056 27.97056 0 0 0-27.92448-27.94496z m-313.28768 132.90496H301.62944a27.97056 27.97056 0 0 0-27.92448 27.94496 27.96032 27.96032 0 0 0 27.92448 27.93472h381.15328a27.9552 27.9552 0 0 0 27.91424-27.93472 27.9552 27.9552 0 0 0-27.90912-27.94496z" p-id="1592"></path></svg>