<?xml version="1.0" standalone="no"?>
<!DOCTYPE svg PUBLIC "-//W3C//DTD SVG 1.1//EN" "http://www.w3.org/Graphics/SVG/1.1/DTD/svg11.dtd"><svg t="1678177051419"
    class="icon" viewBox="0 0 1024 1024" version="1.1" xmlns="http://www.w3.org/2000/svg" p-id="1732"
    xmlns:xlink="http://www.w3.org/1999/xlink" width="200" height="200">
    <path
        d="M352.879616 620.05248h365.534208v69.661696H352.879616zM303.017984 714.459136h365.534208v69.661696H303.017984zM336.198656 808.870912h365.534208v69.656576H336.198656z"
        p-id="1733"></path>
    <path
        d="M901.731328 477.336576c-11.824128-27.680768-28.688384-52.52096-50.13504-73.783296-21.451776-21.26336-46.379008-37.947392-74.155008-49.588224-27.58656-11.547648-56.824832-17.687552-86.981632-18.148352-3.024896-11.27424-6.784-22.454272-11.457536-33.270784-12.374016-29.056-30.066688-55.084032-52.61312-77.454336-22.454272-22.269952-48.671744-39.778304-77.910016-52.059136-30.245888-12.647424-62.237696-19.065856-95.230976-19.065856-32.997376 0-64.98816 6.418432-95.235072 19.065856-29.14816 12.19072-55.361536 29.789184-77.910016 52.059136-22.546432 22.36928-40.239104 48.398336-52.614144 77.454336-12.83072 30.155776-19.337216 62.14656-19.337216 95.051776 0 6.228992 0.277504 12.374016 0.733184 18.514944a206.091264 206.091264 0 0 0-55.17824 43.354112c-34.004992 37.579776-52.704256 85.97504-52.704256 136.297472 0 27.58656 5.500928 54.444032 16.313344 79.739904 10.44992 24.288256 25.299968 46.106624 44.182528 64.896 18.881536 18.69824 40.784896 33.364992 65.168384 43.631616a206.34624 206.34624 0 0 0 21.813248 7.78752l0.917504-73.878528c-46.380032-21.445632-78.82752-68.282368-78.82752-122.176512 0-68.655104 52.614144-125.664256 119.799808-133.639168-8.06912-19.982336-12.558336-41.70752-12.558336-64.438272 0-96.058368 78.550016-173.874176 175.435776-173.874176 81.1264 0 149.38624 54.634496 169.4464 128.748544-17.73568 7.54688-34.378752 17.711104-49.283072 30.27968-14.665728 12.370944-16.49664 34.371584-4.125696 49.03424 6.874112 8.159232 16.77312 12.374016 26.674176 12.374016a34.674688 34.674688 0 0 0 22.365184-8.158208c22.546432-19.060736 51.329024-29.51168 80.934912-29.51168 1.258496 0 2.499584-0.070656 3.723264-0.19968 82.786304 8.15104 147.514368 77.45024 147.514368 161.703936 0 65.719296-39.410688 122.360832-96.058368 147.935232l-1.007616 74.5216c40.236032-11.91936 76.715008-34.465792 105.4976-65.813504 39.415808-42.897408 61.134848-98.444288 61.134848-156.643328 0.183296-31.531008-6.045696-62.0544-18.331648-90.74688z"
        p-id="1734"></path>
</svg>