<?xml version="1.0" standalone="no"?>
<!DOCTYPE svg PUBLIC "-//W3C//DTD SVG 1.1//EN" "http://www.w3.org/Graphics/SVG/1.1/DTD/svg11.dtd"><svg t="1678176490857"
    class="icon" viewBox="0 0 1024 1024" version="1.1" xmlns="http://www.w3.org/2000/svg" p-id="1691"
    xmlns:xlink="http://www.w3.org/1999/xlink" width="200" height="200">
    <path
        d="M766.677333 740.864c-192.384 0-271.488-214.101333-274.730667-223.189333l-2.645333-7.466667 2.816-7.381333c3.413333-8.874667 85.504-217.002667 277.546667-217.002667 142.634667 0 234.794667 88.746667 234.794667 226.133333C1004.416 651.008 911.104 740.864 766.677333 740.864zM535.082667 510.677333c15.104 35.754667 87.808 187.52 231.594667 187.52 122.154667 0 195.072-69.632 195.072-186.282667 0-114.858667-71.850667-183.466667-192.128-183.466667C625.237333 328.448 550.741333 475.648 535.082667 510.677333z"
        p-id="1692"></path>
    <path
        d="M257.322667 740.864c-144.426667 0-237.738667-89.856-237.738667-228.949333 0-137.386667 92.16-226.133333 234.794667-226.133333 192.042667 0 274.133333 208.170667 277.546667 217.002667l2.816 7.381333-2.645333 7.466667C528.810667 526.805333 449.706667 740.864 257.322667 740.864zM254.378667 328.448c-120.32 0-192.128 68.565333-192.128 183.466667 0 116.650667 72.917333 186.282667 195.072 186.282667 144.213333 0 216.533333-151.68 231.594667-187.477333C473.173333 475.733333 398.293333 328.448 254.378667 328.448z"
        p-id="1693"></path>
</svg>