<?xml version="1.0" standalone="no"?>
<!DOCTYPE svg PUBLIC "-//W3C//DTD SVG 1.1//EN" "http://www.w3.org/Graphics/SVG/1.1/DTD/svg11.dtd"><svg t="1678176534613"
    class="icon" viewBox="0 0 1024 1024" version="1.1" xmlns="http://www.w3.org/2000/svg" p-id="1833"
    xmlns:xlink="http://www.w3.org/1999/xlink" width="200" height="200">
    <path d="M251.392 738.304a36.352 36.352 0 1 0 72.704 0 36.352 36.352 0 1 0-72.704 0Z" p-id="1834"></path>
    <path
        d="M506.368 701.952c-19.968 0-36.352 16.384-36.352 36.352 0 19.968 16.384 36.352 36.352 36.352s36.352-16.384 36.352-36.352-16.384-36.352-36.352-36.352zM186.88 811.52c-19.968 0-36.352 15.872-36.352 35.84s16.384 35.84 36.352 35.84 36.352-15.872 36.352-35.84-16.384-35.84-36.352-35.84zM186.88 596.992c-19.968 0-36.352 15.872-36.352 35.84s16.384 35.84 36.352 35.84 36.352-15.872 36.352-35.84-16.384-35.84-36.352-35.84zM400.896 668.672zM400.896 596.992c-19.968 0-36.352 15.872-36.352 35.84s16.384 35.84 36.352 35.84 36.352-15.872 36.352-35.84-16.384-35.84-36.352-35.84zM400.896 883.2zM400.896 811.52c-19.968 0-36.352 15.872-36.352 35.84s16.384 35.84 36.352 35.84 36.352-15.872 36.352-35.84c0-19.456-16.384-35.84-36.352-35.84zM724.992 701.952c-19.968 0-36.352 16.384-36.352 36.352 0 19.968 16.384 36.352 36.352 36.352 19.968 0 36.352-16.384 36.352-36.352-0.512-19.968-16.384-36.352-36.352-36.352z"
        p-id="1835"></path>
    <path d="M579.072 847.36a36.352 35.84 0 1 0 72.704 0 36.352 35.84 0 1 0-72.704 0Z" p-id="1836"></path>
    <path d="M579.072 632.832a36.352 35.84 0 1 0 72.704 0 36.352 35.84 0 1 0-72.704 0Z" p-id="1837"></path>
    <path
        d="M829.44 668.672zM829.44 596.992c-19.968 0-36.352 15.872-36.352 35.84s16.384 35.84 36.352 35.84c19.968 0 36.352-15.872 36.352-35.84s-16.384-35.84-36.352-35.84zM829.44 811.52c-19.968 0-36.352 15.872-36.352 35.84s16.384 35.84 36.352 35.84c19.968 0 36.352-15.872 36.352-35.84 0-19.456-16.384-35.84-36.352-35.84zM829.44 883.2zM156.672 266.24h698.88c19.968 0 35.84-15.872 35.84-35.84 0-19.456-15.872-35.84-35.84-35.84H156.672c-19.456 0-35.84 16.384-35.84 35.84 0 19.968 15.872 35.84 35.84 35.84zM855.552 326.144H156.672c-19.456 0-35.84 16.384-35.84 35.84 0 19.968 16.384 35.84 35.84 35.84h698.88c19.968 0 35.84-15.872 35.84-35.84s-16.384-35.84-35.84-35.84zM855.552 458.24H156.672c-19.456 0-35.84 15.872-35.84 35.84 0 19.456 16.384 35.84 35.84 35.84h698.88c19.968 0 35.84-16.384 35.84-35.84s-16.384-35.84-35.84-35.84z"
        p-id="1838"></path>
</svg>