<?xml version="1.0" standalone="no"?>
<!DOCTYPE svg PUBLIC "-//W3C//DTD SVG 1.1//EN" "http://www.w3.org/Graphics/SVG/1.1/DTD/svg11.dtd"><svg t="1678177234893"
    class="icon" viewBox="0 0 1024 1024" version="1.1" xmlns="http://www.w3.org/2000/svg" p-id="1660"
    xmlns:xlink="http://www.w3.org/1999/xlink" width="200" height="200">
    <path
        d="M190.56 780.064a224.096 224.096 0 0 1 38.944-418.048C255.68 229.92 372.224 130.336 512 130.336c139.808 0 256.32 99.584 282.496 231.68a224.096 224.096 0 0 1 39.04 418.016h-0.064a32 32 0 0 1-27.456-57.824A160 160 0 0 0 736 418.304a224 224 0 0 0-448 0 160 160 0 0 0-68.672 304.576 32 32 0 1 1-28.8 57.184zM416 893.664c-26.496 0-48-22.912-48-51.2 0-18.848 16-44.448 48-76.8 32 32.352 48 57.952 48 76.8 0 28.288-21.504 51.2-48 51.2z m192 0c-26.496 0-48-22.912-48-51.2 0-18.848 16-44.448 48-76.8 32 32.352 48 57.952 48 76.8 0 28.288-21.504 51.2-48 51.2z"
        p-id="1661"></path>
</svg>