<?xml version="1.0" standalone="no"?>
<!DOCTYPE svg PUBLIC "-//W3C//DTD SVG 1.1//EN" "http://www.w3.org/Graphics/SVG/1.1/DTD/svg11.dtd"><svg t="1678177264583"
    class="icon" viewBox="0 0 1024 1024" version="1.1" xmlns="http://www.w3.org/2000/svg" p-id="1942"
    xmlns:xlink="http://www.w3.org/1999/xlink" width="200" height="200">
    <path
        d="M913.902486 396.369469c-24.63405-25.14468-56.262398-41.21775-90.583065-46.339398C815.932174 220.757846 708.377576 117.856221 577.230654 117.856221c-95.02626 0-180.608427 54.472636-221.50793 138.26504-18.184151-12.360516-39.795355-19.12457-62.380746-19.12457-61.253062 0-111.087051 49.835012-111.087051 111.090121 0 1.727341 0.039909 3.454682 0.12075 5.179976-68.349691 18.690688-117.686353 81.69872-117.686353 154.208151 0 88.143503 71.773673 159.852708 159.995971 159.852708l104.141872 0 0 269.705652c0 11.370978 9.219989 20.590967 20.590967 20.590967 11.370978 0 20.590967-9.219989 20.590967-20.590967L370.009102 667.327648l188.599426 0 0 269.705652c0 11.370978 9.219989 20.590967 20.590967 20.590967 11.370978 0 20.590967-9.219989 20.590967-20.590967L599.790462 667.327648 800.12721 667.327648c42.039465 0 81.85017-16.546861 112.091938-46.592155 30.453592-30.255071 47.223534-70.342068 47.223534-112.87886C959.442682 465.942011 943.270351 426.347225 913.902486 396.369469zM883.195114 591.521125c-22.476921 22.327518-51.976792 34.625612-83.067904 34.625612L224.684272 626.146737c-65.514109 0-118.814036-53.236482-118.814036-118.671797 0-59.013045 44.00012-109.546975 102.348016-117.545136 5.773494-0.789992 10.94119-3.991917 14.220886-8.809643 3.281743-4.815679 4.367471-10.79588 2.990101-16.458857-1.323135-5.430686-1.992377-11.008728-1.992377-16.575514 0-38.546921 31.358195-69.90921 69.905116-69.90921 21.118993 0 40.889269 9.402137 54.241368 25.794479 4.723581 5.79703 12.213159 8.582469 19.580964 7.267521 7.361665-1.312902 13.431917-6.513344 15.859199-13.58746 28.455075-82.909292 106.500593-138.613988 194.207144-138.613988 113.208365 0 205.311039 92.053556 205.311039 205.203592 0 0.856507 0.020466 1.693572 0.039909 2.523473 0.016373 0.560772 0.037862 1.116427 0.024559 1.689479-0.245593 11.326976 8.707312 20.72502 20.031219 21.028942 31.043017 0.836041 60.109006 13.516852 81.846076 35.706223 21.781072 22.233374 33.777291 51.593052 33.777291 82.667791C918.261771 539.344788 905.809157 569.05546 883.195114 591.521125z"
        p-id="1943"></path>
    <path
        d="M464.307791 701.314717c-11.370978 0-20.590967 9.219989-20.590967 20.590967l0 215.127615c0 11.370978 9.219989 20.590967 20.590967 20.590967 11.370978 0 20.590967-9.219989 20.590967-20.590967L484.898759 721.905684C484.898759 710.533682 475.679793 701.314717 464.307791 701.314717z"
        p-id="1944"></path>
    <path
        d="M694.087105 701.314717c-11.370978 0-20.590967 9.219989-20.590967 20.590967l0 215.127615c0 11.370978 9.219989 20.590967 20.590967 20.590967s20.590967-9.219989 20.590967-20.590967L714.678072 721.905684C714.678072 710.533682 705.458083 701.314717 694.087105 701.314717z"
        p-id="1945"></path>
    <path
        d="M234.527454 763.086595c-11.370978 0-20.590967 9.219989-20.590967 20.590967l0 91.583858c0 11.370978 9.219989 20.590967 20.590967 20.590967 11.370978 0 20.590967-9.219989 20.590967-20.590967l0-91.583858C255.118422 772.305561 245.898433 763.086595 234.527454 763.086595z"
        p-id="1946"></path>
    <path
        d="M808.978808 763.086595c-11.370978 0-20.590967 9.219989-20.590967 20.590967l0 91.583858c0 11.370978 9.219989 20.590967 20.590967 20.590967 11.370978 0 20.590967-9.219989 20.590967-20.590967l0-91.583858C829.568752 772.305561 820.349787 763.086595 808.978808 763.086595z"
        p-id="1947"></path>
</svg>