<?xml version="1.0" standalone="no"?>
<!DOCTYPE svg PUBLIC "-//W3C//DTD SVG 1.1//EN" "http://www.w3.org/Graphics/SVG/1.1/DTD/svg11.dtd"><svg t="1678177862875"
    class="icon" viewBox="0 0 1024 1024" version="1.1" xmlns="http://www.w3.org/2000/svg" p-id="1938"
    xmlns:xlink="http://www.w3.org/1999/xlink" width="200" height="200">
    <path
        d="M233.897708 572.574202c9.398172 0 18.006292-3.380734 24.675715-8.99164 8.361708-7.035685 13.676345-17.577708 13.676345-29.360419 0-12.519071-5.999221-23.638292-15.278502-30.637543-6.420135-4.842906-14.411745-7.714517-23.073558-7.714517-9.812375 0-18.764704 3.685633-25.547266 9.747176-7.858337 7.023221-12.804794 17.236375-12.804794 28.604884 0 7.942712 2.414262 15.321648 6.549573 21.442637C208.988045 565.867386 220.659536 572.574202 233.897708 572.574202z"
        p-id="1939"></path>
    <path
        d="M385.341363 561.021603c6.940764-6.940764 11.233318-16.528779 11.233318-27.118742 0-11.671491-5.213963-22.125303-13.438562-29.159071-6.702022-5.731715-15.403146-9.192989-24.913498-9.192989-11.154697 0-21.197184 4.762367-28.206022 12.364704-6.299326 6.833378-10.146037 15.961169-10.146037 25.987356 0 10.590921 4.292554 20.178936 11.233318 27.118742 6.940764 6.940764 16.528779 11.233318 27.118742 11.233318S378.401558 567.962367 385.341363 561.021603z"
        p-id="1940"></path>
    <path
        d="M483.186097 572.574202c10.887191 0 20.714906-4.53609 27.69594-11.822022 6.60039-6.888989 10.65612-16.235386 10.65612-26.530037 0-11.097169-4.713468-21.093633-12.24773-28.096719-6.845843-6.363566-16.020614-10.255341-26.10433-10.255341-10.590921 0-20.178936 4.292554-27.118742 11.233318s-11.233318 16.528779-11.233318 27.118742c0 9.972494 3.806442 19.05618 10.045363 25.877094C461.892075 567.765813 471.977708 572.574202 483.186097 572.574202z"
        p-id="1941"></path>
    <path
        d="M607.511011 572.254921c10.018517 0 19.140554-3.841918 25.972015-10.132614 7.611925-7.008839 12.380045-17.057079 12.380045-28.219446 0-11.296599-4.884135-21.452225-12.655221-28.470652-6.800779-6.141124-15.811596-9.881408-25.696839-9.881408-9.830592 0-18.797303 3.699056-25.584659 9.780734-7.836285 7.022262-12.767401 17.221034-12.767401 28.571326 0 10.135491 3.932045 19.352449 10.353139 26.209798C586.510382 567.585558 596.465618 572.254921 607.511011 572.254921z"
        p-id="1942"></path>
    <path
        d="M119.127251 612.252285c-6.940764-6.940764-16.528779-11.233318-27.118742-11.233318-11.482607 0-21.786846 5.046172-28.81582 13.042577-5.93594 6.753798-9.53624 15.611206-9.53624 25.309483 0 10.590921 4.292554 20.178936 11.233318 27.118742s16.528779 11.233318 27.118742 11.233318c9.685813 0 18.532674-3.590712 25.283596-9.513228 8.011745-7.028974 13.068464-17.34376 13.068464-28.838831C130.360569 628.781064 126.068015 619.193049 119.127251 612.252285z"
        p-id="1943"></path>
    <path
        d="M188.309573 613.853483c-6.217828 6.81612-10.008929 15.884464-10.008929 25.837783 0 9.934142 3.776719 18.985228 9.972494 25.797513 7.015551 7.712599 17.131865 12.554547 28.379566 12.554547 10.427925 0 19.882667-4.161199 26.796584-10.914037 7.129648-6.963775 11.555476-16.684105 11.555476-27.438022 0-10.438472-4.169828-19.901843-10.935131-26.817678-6.962816-7.117184-16.674517-11.534382-27.416929-11.534382C205.42418 601.339206 195.323206 606.163895 188.309573 613.853483z"
        p-id="1944"></path>
    <path
        d="M303.080989 639.489918c0 16.001438 12.971625 28.974022 28.974022 28.974022 0.684584 0 1.360539-0.032599 2.033618-0.078622l447.187895 0 0-0.030682c44.903551-0.202307 81.245004-36.656899 81.245004-81.60839 0-44.486472-35.597423-80.634247-79.858577-81.573873l0-0.035476-1.405603 0c-0.118891-0.000959-0.234906-0.008629-0.353798-0.008629-0.121768 0-0.240659 0.008629-0.362427 0.008629l-55.611446 0c-0.715266-0.052734-1.435326-0.089169-2.164015-0.089169-16.001438 0-28.974022 12.971625-28.974022 28.974022s12.971625 28.974022 28.974022 28.974022c0.151491 0 0.300105-0.008629 0.451596-0.011506l0 0.04027 56.707356 0 0 0.015341c0.207101-0.008629 0.41612-0.011506 0.625139-0.015341l0.707596 0c12.941903 0.189843 23.376539 10.733783 23.376539 23.721708 0 13.105858-10.624479 23.730337-23.730337 23.730337-0.32791 0-0.653903-0.011506-0.978936-0.024929l0 0.405573L336.50385 610.857228c-1.450667-0.223401-2.936809-0.340375-4.449798-0.340375C316.052614 610.515895 303.080989 623.488479 303.080989 639.489918z"
        p-id="1945"></path>
    <path
        d="M185.893393 715.796135c-6.554367-5.226427-14.858547-8.349243-23.892375-8.349243-11.937079 0-22.600869 5.453663-29.634637 14.005213-5.446951 6.622442-8.717423 15.102082-8.717423 24.346846 0 10.590921 4.292554 20.178936 11.233318 27.118742s16.528779 11.233318 27.118742 11.233318c10.190142 0 19.452165-3.974232 26.32006-10.456689 7.408659-6.992539 12.032-16.90367 12.032-27.895371C200.353079 733.651895 194.705738 722.823191 185.893393 715.796135z"
        p-id="1946"></path>
    <path
        d="M310.942202 716.707955c-6.660794-5.581184-15.246861-8.941783-24.61627-8.941783-11.778876 0-22.318022 5.309843-29.353708 13.667715-5.6157 6.670382-8.998352 15.282337-8.998352 24.684345 0 9.355026 3.350052 17.928629 8.914936 24.584629 7.034727 8.414442 17.611266 13.767431 29.437124 13.767431 9.327221 0 17.876854-3.329918 24.525184-8.865079 8.448959-7.034727 13.826876-17.633318 13.826876-29.486981C324.677034 734.307715 319.338427 723.74364 310.942202 716.707955z"
        p-id="1947"></path>
    <path
        d="M432.619865 714.904449c-6.282067-4.493903-13.976449-7.138277-22.289258-7.138277-11.80764 0-22.36788 5.33573-29.403566 13.727161-5.585978 6.662712-8.948494 15.250697-8.948494 24.624899 0 9.210247 3.246502 17.661124 8.657019 24.273019 7.032809 8.593738 17.723446 14.079041 29.695041 14.079041 10.01564 0 19.133843-3.839041 25.965303-10.125903 7.61576-7.008839 12.386757-17.059955 12.386757-28.226157C448.682667 733.250157 442.34403 721.861513 432.619865 714.904449z"
        p-id="1948"></path>
    <path
        d="M885.665079 717.122157l0-0.099715L528.724375 717.022442c-0.67212-0.046981-1.349034-0.078622-2.033618-0.078622-16.001438 0-28.974022 12.971625-28.974022 28.974022s12.971625 28.974022 28.974022 28.974022c1.512989 0 2.999131-0.116974 4.449798-0.340375l350.417019 0 0 0.405573c0.325034-0.013423 0.650067-0.024929 0.978936-0.024929 13.105858 0 23.730337 10.624479 23.730337 23.730337 0 12.986966-10.434637 23.531865-23.376539 23.721708l-0.707596 0c-0.20806-0.004794-0.417079-0.00767-0.625139-0.015341l0 0.015341-27.943311 0 0 0.04027c-0.150532-0.001918-0.300105-0.011506-0.451596-0.011506-16.001438 0-28.974022 12.971625-28.974022 28.974022s12.971625 28.974022 28.974022 28.974022c0.728689 0 1.448749-0.036434 2.164015-0.089169l26.847401 0c0.120809 0.000959 0.240659 0.008629 0.362427 0.008629 0.118891 0 0.235865-0.008629 0.353798-0.008629l1.405603 0 0-0.035476c44.261154-0.939625 79.858577-37.087401 79.858577-81.573873C964.154487 754.634307 929.289588 718.769378 885.665079 717.122157z"
        p-id="1949"></path>
    <path
        d="M760.543401 819.974712c-6.341513-4.63964-14.162457-7.378936-22.621963-7.378936-10.911161 0-20.759011 4.557184-27.742921 11.87188-6.572584 6.884195-10.609139 16.211416-10.609139 26.48018 0 9.4557 3.421963 18.11176 9.095191 24.798442 7.034727 8.291715 17.531685 13.553618 29.256869 13.553618 9.597603 0 18.371596-3.525513 25.098547-9.35215 8.118172-7.03185 13.253513-17.416629 13.253513-28.99991C776.272539 838.226457 770.07964 826.95191 760.543401 819.974712z"
        p-id="1950"></path>
    <path
        d="M635.881948 819.82418c-6.221663-4.354876-13.795236-6.909124-21.966142-6.909124-10.348345 0-19.739805 4.098876-26.639341 10.761588-7.221693 6.974322-11.712719 16.757933-11.712719 27.590472 0 10.176719 3.963685 19.428195 10.43176 26.293213 6.993498 7.424 16.916135 12.058846 27.9203 12.058846 9.342562 0 17.904659-3.340464 24.557783-8.891925 8.430742-7.034727 13.794277-17.620854 13.794277-29.460135C652.267865 838.25618 645.789243 826.758232 635.881948 819.82418z"
        p-id="1951"></path>
    <path
        d="M488.63209 813.234337c-9.787446 0-18.718682 3.666457-25.494532 9.700195-7.889019 7.02418-12.857528 17.258427-12.857528 28.651865 0 11.546846 5.1037 21.902861 13.177768 28.933753 6.736539 5.865948 15.540255 9.418307 25.174292 9.418307 10.926502 0 20.785858-4.569648 27.771685-11.901603 6.556285-6.881318 10.580375-16.196075 10.580375-26.450457 0-9.458577-3.42388-18.116554-9.099026-24.804195C510.850397 818.494322 500.355356 813.234337 488.63209 813.234337z"
        p-id="1952"></path>
    <path
        d="M388.786337 822.329528c-6.686682-5.673228-15.342742-9.095191-24.798442-9.095191-11.581363 0-21.964225 5.133423-28.996075 13.249678-5.828554 6.726951-9.355985 15.502861-9.355985 25.102382 0 9.926472 3.770966 18.971805 9.958112 25.782172 7.015551 7.722187 17.138577 12.569888 28.393948 12.569888 9.267775 0 17.767551-3.286772 24.396704-8.758652 8.522787-7.034727 13.955356-17.679341 13.955356-29.593408C402.339955 839.861213 397.078052 829.364255 388.786337 822.329528z"
        p-id="1953"></path>
    <path
        d="M264.436494 821.988195c-6.682846-5.659805-15.329318-9.073139-24.772554-9.073139-10.590921 0-20.178936 4.292554-27.118742 11.233318-6.940764 6.940764-11.233318 16.528779-11.233318 27.118742 0 9.592809 3.521678 18.362966 9.342562 25.088 7.032809 8.124884 17.420464 13.26406 29.009498 13.26406 10.095221 0 19.279581-3.900404 26.127341-10.276434 7.520839-7.002127 12.224719-16.989963 12.224719-28.075625C278.016 839.529468 272.742592 829.022921 264.436494 821.988195z"
        p-id="1954"></path>
    <path
        d="M754.217228 286.450577c-49.386906-92.019056-146.504869-154.60003-258.250307-154.60003-120.532854 0-224.045064 72.811386-268.995596 176.842307C126.77561 329.904419 51.582562 418.844764 51.582562 525.358981c0 3.011596 0.077663 6.004974 0.196554 8.987805l68.068195 0c-0.138067-2.658757-0.209978-5.33573-0.209978-8.029004 0-84.371655 68.397064-152.768719 152.768719-152.768719 0.931955 0 1.859116 0.018217 2.786277 0.035476 5.589813-24.286442 15.081948-47.078112 27.772644-67.691386-0.038352-0.004794-0.076704-0.011506-0.115056-0.017258 13.172015-21.349633 29.785169-40.350202 49.064749-56.229873 0.116015-0.09588 0.233948-0.188884 0.349963-0.284764 1.022082-0.838951 2.052794-1.667356 3.089258-2.48809 0.529258-0.419955 1.058517-0.838951 1.590652-1.254112 0.465978-0.362427 0.936749-0.719101 1.404644-1.077693 38.234127-29.328779 86.06394-46.773213 137.975371-46.773213 101.522697 0 187.464869 66.674097 216.449438 158.620285 11.29564-2.46412 23.022742-3.773843 35.056659-3.773843 11.265918 0 22.265288 1.139056 32.890727 3.304989-0.001918-0.00767-0.003835-0.015341-0.004794-0.022052 3.933963 0.806352 7.813273 1.763236 11.638891 2.845723 0.245453 0.069034 0.489948 0.139985 0.734442 0.209978 0.895521 0.257918 1.787206 0.523506 2.676974 0.795805 0.465978 0.141903 0.930996 0.285723 1.395056 0.432419 0.609798 0.192719 1.21576 0.39215 1.822682 0.591581 0.680749 0.223401 1.360539 0.44776 2.037453 0.67979 0.228195 0.078622 0.454472 0.161079 0.681708 0.2397 63.982742 22.27967 109.902622 83.121378 109.902622 154.696869 0 6.074007-0.341333 12.062682-0.985648 17.956434l63.547446 0c0.460225-5.941693 0.699925-11.94379 0.699925-18.003416C974.869094 392.427865 876.915056 291.408539 754.217228 286.450577z"
        p-id="1955"></path>
</svg>