<?xml version="1.0" standalone="no"?>
<!DOCTYPE svg PUBLIC "-//W3C//DTD SVG 1.1//EN" "http://www.w3.org/Graphics/SVG/1.1/DTD/svg11.dtd"><svg t="1678177459483"
    class="icon" viewBox="0 0 1024 1024" version="1.1" xmlns="http://www.w3.org/2000/svg" p-id="1506"
    xmlns:xlink="http://www.w3.org/1999/xlink" width="200" height="200">
    <path
        d="M947.257494 737.527976L794.972366 649.636559l120.088273-32.196856c11.898838-3.199688 18.898154-15.398496 15.698467-27.297334-3.199688-11.898838-15.398496-18.898154-27.297335-15.698467l-163.084074 43.695733L556.495655 511.950005l183.882042-106.18963 163.084074 43.695733c1.899814 0.499951 3.899619 0.799922 5.799434 0.799922 9.799043 0 18.798164-6.599356 21.497901-16.498389 3.199688-11.898838-3.899619-24.097647-15.698467-27.297334L794.972366 374.263451l152.285128-87.891417c10.598965-6.099404 14.298604-19.798067 8.099209-30.397032-6.099404-10.598965-19.798067-14.298604-30.397031-8.099209l-152.285128 87.891417 32.196855-120.088272c3.199688-11.898838-3.899619-24.097647-15.698467-27.297335-11.898838-3.199688-24.097647 3.899619-27.297334 15.698467l-43.695733 163.084074-183.882043 106.18963V261.074504l119.388341-119.388341c8.69915-8.69915 8.69915-22.797774 0-31.496924s-22.797774-8.69915-31.496924 0l-87.891417 87.891417V22.297822C534.297822 9.999024 524.198809 0 512 0s-22.297822 9.999024-22.297822 22.297822v175.882824l-87.891417-87.891416c-8.69915-8.69915-22.797774-8.69915-31.496924 0s-8.69915 22.797774 0 31.496924l119.388341 119.388341v212.37926L305.820135 367.264134l-43.695733-163.084073c-3.199688-11.898838-15.398496-18.898154-27.297334-15.698467-11.898838 3.199688-18.898154 15.398496-15.698467 27.297334l32.196855 120.088272-152.285128-87.991407c-10.598965-6.099404-24.297627-2.499756-30.397031 8.099209-6.099404 10.598965-2.499756 24.297627 8.099209 30.397032L229.027634 374.263451l-120.088273 32.196856C97.040523 409.659994 90.041207 421.858803 93.240894 433.757641c2.699736 9.899033 11.698858 16.498389 21.497901 16.498389 1.899814 0 3.799629-0.19998 5.799434-0.799922l163.084074-43.695733L467.504345 511.950005 283.622303 618.139635l-163.084074-43.695733c-11.898838-3.199688-24.097647 3.899619-27.297335 15.698467-3.199688 11.898838 3.899619 24.097647 15.698467 27.297334L229.027634 649.636559 76.742506 737.527976c-10.598965 6.099404-14.298604 19.798067-8.099209 30.397031s19.798067 14.298604 30.397031 8.099209l152.285128-87.891416-32.196855 120.088272c-3.199688 11.898838 3.899619 24.097647 15.698467 27.297334 1.899814 0.499951 3.899619 0.799922 5.799433 0.799922 9.799043 0 18.798164-6.599356 21.497901-16.498389l43.695733-163.084073 183.882043-106.18963V762.925496L370.313837 882.213846c-8.69915 8.69915-8.69915 22.797774 0 31.496924s22.797774 8.69915 31.496924 0l87.891417-87.891416v175.882824c0 12.198809 9.999024 22.297822 22.297822 22.297822s22.297822-9.999024 22.297822-22.297822V825.819354l87.891417 87.891416c4.29958 4.29958 9.999024 6.499365 15.698467 6.499366s11.398887-2.199785 15.698467-6.499366c8.69915-8.69915 8.69915-22.797774 0-31.496924L534.297822 762.825505V550.546236l183.882043 106.18963 43.695733 163.084073c2.699736 9.899033 11.698858 16.498389 21.497901 16.498389 1.899814 0 3.799629-0.19998 5.799433-0.799922 11.898838-3.199688 18.898154-15.398496 15.698467-27.297334l-32.196855-120.088272L924.959672 776.024216c10.598965 6.099404 24.297627 2.499756 30.397031-8.099209 6.099404-10.598965 2.499756-24.297627-8.099209-30.397031z"
        p-id="1507"></path>
</svg>