<?xml version="1.0" standalone="no"?>
<!DOCTYPE svg PUBLIC "-//W3C//DTD SVG 1.1//EN" "http://www.w3.org/Graphics/SVG/1.1/DTD/svg11.dtd"><svg t="1678177606375"
    class="icon" viewBox="0 0 1024 1024" version="1.1" xmlns="http://www.w3.org/2000/svg" p-id="12854"
    xmlns:xlink="http://www.w3.org/1999/xlink" width="200" height="200">
    <path
        d="M512 184.32c90.112 0 168.96 67.584 182.272 155.648l5.12 34.816c1.024 4.096 4.096 7.168 8.192 8.192l34.816 8.192c45.056 9.216 76.8 49.152 76.8 95.232 0 52.224-40.96 95.232-94.208 97.28H310.272C253.952 583.68 204.8 538.624 204.8 482.304c0-48.128 32.768-90.112 79.872-100.352l32.768-7.168c4.096-1.024 7.168-4.096 8.192-8.192l6.144-32.768C348.16 246.784 423.936 184.32 512 184.32m0-61.44c-119.808 0-219.136 86.016-241.664 198.656C196.608 337.92 142.336 404.48 143.36 483.328 144.384 573.44 221.184 645.12 311.296 645.12H727.04c84.992-3.072 153.6-72.704 153.6-158.72 0-76.8-54.272-140.288-125.952-155.648C737.28 212.992 634.88 122.88 512 122.88zM264.192 752.64L238.592 737.28l25.6-15.36c7.168-4.096 10.24-13.312 5.12-20.48-4.096-7.168-13.312-10.24-20.48-5.12l-25.6 15.36v-29.696c0-8.192-7.168-15.36-15.36-15.36s-15.36 7.168-15.36 15.36v29.696L166.912 696.32c-7.168-4.096-16.384-2.048-20.48 5.12s-2.048 16.384 5.12 20.48l25.6 15.36-25.6 15.36c-7.168 4.096-10.24 13.312-5.12 20.48 4.096 7.168 13.312 10.24 20.48 5.12l25.6-15.36v29.696c0 8.192 7.168 15.36 15.36 15.36s15.36-7.168 15.36-15.36v-29.696l25.6 15.36c7.168 4.096 16.384 2.048 20.48-5.12 4.096-7.168 2.048-16.384-5.12-20.48zM568.32 752.64L542.72 737.28l25.6-15.36c7.168-4.096 10.24-13.312 5.12-20.48-4.096-7.168-13.312-10.24-20.48-5.12l-25.6 15.36v-29.696c0-8.192-7.168-15.36-15.36-15.36s-15.36 7.168-15.36 15.36v29.696L471.04 696.32c-7.168-4.096-16.384-2.048-20.48 5.12s-2.048 16.384 5.12 20.48L481.28 737.28l-25.6 15.36c-7.168 4.096-10.24 13.312-5.12 20.48 4.096 7.168 13.312 10.24 20.48 5.12l25.6-15.36v29.696c0 8.192 7.168 15.36 15.36 15.36s15.36-7.168 15.36-15.36v-29.696L552.96 778.24c7.168 4.096 16.384 2.048 20.48-5.12 5.12-7.168 2.048-16.384-5.12-20.48zM872.448 752.64L846.848 737.28l25.6-15.36c7.168-4.096 10.24-13.312 5.12-20.48-4.096-7.168-13.312-10.24-20.48-5.12l-25.6 15.36v-29.696c0-8.192-7.168-15.36-15.36-15.36s-15.36 7.168-15.36 15.36v29.696L775.168 696.32c-7.168-4.096-16.384-2.048-20.48 5.12s-2.048 16.384 5.12 20.48l25.6 15.36-25.6 15.36c-7.168 4.096-10.24 13.312-5.12 20.48 4.096 7.168 13.312 10.24 20.48 5.12l25.6-15.36v29.696c0 8.192 7.168 15.36 15.36 15.36s15.36-7.168 15.36-15.36v-29.696l25.6 15.36c7.168 4.096 16.384 2.048 20.48-5.12 5.12-7.168 3.072-16.384-5.12-20.48zM415.744 844.8L390.144 829.44l25.6-15.36c7.168-4.096 10.24-13.312 5.12-20.48-4.096-7.168-13.312-10.24-20.48-5.12l-25.6 15.36v-29.696c0-8.192-7.168-15.36-15.36-15.36s-15.36 7.168-15.36 15.36v29.696L318.464 788.48c-7.168-4.096-16.384-2.048-20.48 5.12s-2.048 16.384 5.12 20.48l25.6 15.36-25.6 15.36c-7.168 4.096-10.24 13.312-5.12 20.48 4.096 7.168 13.312 10.24 20.48 5.12l25.6-15.36v29.696c0 8.192 7.168 15.36 15.36 15.36s15.36-7.168 15.36-15.36v-29.696l25.6 15.36c7.168 4.096 16.384 2.048 20.48-5.12 5.12-7.168 3.072-16.384-5.12-20.48zM720.896 844.8L695.296 829.44l25.6-15.36c7.168-4.096 10.24-13.312 5.12-20.48-4.096-7.168-13.312-10.24-20.48-5.12l-25.6 15.36v-29.696c0-8.192-7.168-15.36-15.36-15.36s-15.36 7.168-15.36 15.36v29.696L623.616 788.48c-7.168-4.096-16.384-2.048-20.48 5.12s-2.048 16.384 5.12 20.48l25.6 15.36-25.6 15.36c-7.168 4.096-10.24 13.312-5.12 20.48 4.096 7.168 13.312 10.24 20.48 5.12l25.6-15.36v29.696c0 8.192 7.168 15.36 15.36 15.36s15.36-7.168 15.36-15.36v-29.696l25.6 15.36c7.168 4.096 16.384 2.048 20.48-5.12s2.048-16.384-5.12-20.48z"
        p-id="12855"></path>
</svg>