<?xml version="1.0" standalone="no"?>
<!DOCTYPE svg PUBLIC "-//W3C//DTD SVG 1.1//EN" "http://www.w3.org/Graphics/SVG/1.1/DTD/svg11.dtd"><svg t="1678177591591"
    class="icon" viewBox="0 0 1024 1024" version="1.1" xmlns="http://www.w3.org/2000/svg" p-id="12710"
    xmlns:xlink="http://www.w3.org/1999/xlink" width="200" height="200">
    <path
        d="M754.897978 207.082906c-49.386906-92.019056-146.504869-154.60003-258.250307-154.60003-120.532854 0-224.045064 72.811386-268.995596 176.842307C127.45636 250.536749 52.263311 339.477094 52.263311 445.991311c0 122.321978 99.161169 221.483146 221.483146 221.483146 2.815041 0 5.616659-0.059446 8.406772-0.163955L538.319101 667.310502l-10.396285 6.002097 0.002876 0.004794c-14.204644 8.32815-19.047551 26.571266-10.800899 40.853573s26.465798 19.210547 40.780704 11.073199l0.002876 0.004794 12.115416-6.995416 0 12.185408 0.004794 0c0.110262 16.465498 13.488419 29.781333 29.979805 29.781333 16.492345 0 29.869543-13.314876 29.979805-29.781333l0.004794 0 0-11.187296 10.254382 5.920599 0.002876-0.004794c14.314906 8.137348 32.535011 3.209109 40.780704-11.073199 8.245693-14.282307 3.403745-32.525423-10.800899-40.853573l0.002876-0.004794-10.26397-5.925393 90.76015 0 0-0.301064c124.641318-2.807371 224.819775-104.718382 224.819775-230.033738C975.549843 313.060195 877.595805 212.040869 754.897978 207.082906zM750.730067 599.810876c0 0-16.810667 0.390232-21.037064-0.094921L273.353348 599.715955c-0.089169 0-0.177378 0.003835-0.266547 0.003835-0.098757 0-0.196554-0.003835-0.29627-0.003835l-1.308764 0 0-0.0163c-83.631461-0.861963-151.163685-68.912899-151.163685-152.748584 0-84.371655 68.397064-152.768719 152.768719-152.768719 0.931955 0 1.859116 0.018217 2.786277 0.035476 5.589813-24.286442 15.081948-47.078112 27.772644-67.691386-0.038352-0.004794-0.076704-0.011506-0.115056-0.017258 13.172015-21.349633 29.785169-40.350202 49.064749-56.229873 0.116015-0.09588 0.233948-0.188884 0.349963-0.284764 1.022082-0.838951 2.052794-1.667356 3.089258-2.48809 0.529258-0.419955 1.058517-0.838951 1.590652-1.254112 0.465978-0.362427 0.936749-0.719101 1.404644-1.077693 38.234127-29.328779 86.06394-46.773213 137.975371-46.773213 101.522697 0 187.464869 66.674097 216.449438 158.620285 11.29564-2.46412 23.022742-3.773843 35.056659-3.773843 11.265918 0 22.265288 1.139056 32.890727 3.304989-0.001918-0.00767-0.003835-0.015341-0.004794-0.022052 3.933963 0.806352 7.813273 1.763236 11.638891 2.845723 0.245453 0.069034 0.489948 0.139985 0.734442 0.209978 0.895521 0.257918 1.787206 0.523506 2.676974 0.795805 0.465978 0.141903 0.930996 0.285723 1.395056 0.432419 0.609798 0.192719 1.21576 0.39215 1.822682 0.591581 0.680749 0.223401 1.360539 0.44776 2.037453 0.67979 0.228195 0.078622 0.454472 0.161079 0.681708 0.2397 63.982742 22.27967 109.902622 83.121378 109.902622 154.696869C912.28812 526.731985 840.157483 598.622921 750.730067 599.810876z"
        p-id="12711"></path>
    <path
        d="M395.789423 728.214532c-6.643536-11.507536-21.323745-15.477933-32.858127-8.921648l-0.001918-0.003835-8.282127 4.781543 0-11.017588-0.003835 0c-0.089169-13.266936-10.867056-23.994966-24.155086-23.994966-13.28803 0-24.065918 10.72803-24.155086 23.994966l-0.003835 0 0 11.822022-9.782652-5.647341-0.001918 0.003835c-11.533423-6.556285-26.213633-2.585888-32.858127 8.921648-6.643536 11.507536-2.742172 26.205963 8.703041 32.916614l-0.001918 0.003835 9.085603 5.245603-9.065468 5.234097 0.001918 0.003835c-11.445213 6.710652-15.346577 21.409079-8.703041 32.916614 6.643536 11.507536 21.323745 15.477933 32.858127 8.921648l0.001918 0.003835 9.761558-5.635835 0 9.817169 0.003835 0c0.089169 13.266936 10.867056 23.994966 24.155086 23.994966 13.28803 0 24.065918-10.72803 24.155086-23.994966l0.003835 0 0-9.013693 8.261993 4.770037 0.001918-0.003835c11.533423 6.556285 26.213633 2.585888 32.858127-8.921648 6.643536-11.507536 2.742172-26.205963-8.703041-32.916614l0.001918-0.003835-8.958082-5.171775 8.979176-5.18424-0.001918-0.003835C398.531596 754.420494 402.432959 739.722067 395.789423 728.214532z"
        p-id="12712"></path>
    <path
        d="M551.342502 870.761468c-5.525573-9.570757-17.73591-12.872869-27.328719-7.420165l-0.001918-0.002876-6.888989 3.977109 0-9.164225-0.003835 0c-0.073828-11.033888-9.038622-19.957453-20.090727-19.957453-11.052105 0-20.01594 8.922607-20.090727 19.957453l-0.003835 0 0 9.832509-8.13639-4.697169-0.001918 0.002876c-9.592809-5.452704-21.803146-2.150592-27.328719 7.420165-5.525573 9.570757-2.280989 21.796434 7.237993 27.377618l-0.001918 0.002876 7.557273 4.362547-7.540015 4.352959 0.001918 0.002876c-9.518981 5.581184-12.763566 17.805903-7.237993 27.377618 5.525573 9.570757 17.73591 12.872869 27.328719 7.420165l0.001918 0.002876 8.119131-4.687581 0 8.165154 0.003835 0c0.073828 11.033888 9.038622 19.957453 20.090727 19.957453 11.052105 0 20.016899-8.922607 20.090727-19.957453l0.003835 0 0-7.496869 6.87173 3.967521 0.001918-0.002876c9.592809 5.452704 21.803146 2.150592 27.328719-7.420165 5.525573-9.570757 2.280989-21.796434-7.237993-27.377618l0.001918-0.002876-7.450846-4.302142 7.468105-4.31173-0.001918-0.002876C553.623491 892.557903 556.868075 880.333184 551.342502 870.761468z"
        p-id="12713"></path>
    <path
        d="M754.52788 817.980404c-5.525573-9.570757-17.73591-12.872869-27.328719-7.420165l-0.001918-0.002876-6.888989 3.977109 0-9.164225-0.003835 0c-0.073828-11.033888-9.038622-19.957453-20.090727-19.957453s-20.016899 8.922607-20.090727 19.957453l-0.003835 0 0 9.832509-8.13639-4.697169-0.001918 0.002876c-9.592809-5.452704-21.803146-2.150592-27.328719 7.420165-5.525573 9.570757-2.280989 21.796434 7.237993 27.377618l-0.001918 0.002876 7.557273 4.362547-7.540015 4.352959 0.001918 0.002876c-9.518981 5.581184-12.763566 17.805903-7.237993 27.377618 5.525573 9.570757 17.73591 12.873828 27.328719 7.420165l0.001918 0.002876 8.119131-4.687581 0 8.165154 0.003835 0c0.073828 11.033888 9.038622 19.957453 20.090727 19.957453 11.052105 0 20.016899-8.922607 20.090727-19.957453l0.003835 0 0-7.496869 6.87173 3.967521 0.001918-0.002876c9.592809 5.452704 21.803146 2.150592 27.328719-7.420165 5.525573-9.570757 2.280989-21.796434-7.237993-27.377618l0.001918-0.002876-7.450846-4.302142 7.468105-4.31173-0.001918-0.002876C756.808869 839.776839 760.053453 827.551161 754.52788 817.980404z"
        p-id="12714"></path>
</svg>