<?xml version="1.0" standalone="no"?>
<!DOCTYPE svg PUBLIC "-//W3C//DTD SVG 1.1//EN" "http://www.w3.org/Graphics/SVG/1.1/DTD/svg11.dtd"><svg t="1678177516171"
    class="icon" viewBox="0 0 1024 1024" version="1.1" xmlns="http://www.w3.org/2000/svg" p-id="7905"
    xmlns:xlink="http://www.w3.org/1999/xlink" width="200" height="200">
    <path
        d="M950.01 604.76c-4.29-16-20.73-25.5-36.74-21.21l-148.45 39.78-44.4-25.64c11.19-26.78 17.07-55.77 17.07-85.66 0-29.91-5.88-58.92-17.09-85.71l44.42-25.64 148.45 39.78c2.6 0.7 5.21 1.03 7.78 1.03 13.25 0 25.37-8.84 28.96-22.24 4.29-16-5.21-32.45-21.21-36.74l-90.49-24.25 57.25-33.05c14.35-8.28 19.26-26.63 10.98-40.98-8.28-14.35-26.63-19.27-40.98-10.98l-57.25 33.05 24.25-90.49c4.29-16-5.21-32.45-21.21-36.74-16.01-4.29-32.46 5.21-36.74 21.21l-39.78 148.45-44.92 25.93a228.03 228.03 0 0 0-17.43-19.6c-35.62-35.62-81.2-57.63-130.47-63.46v-54.2l108.67-108.67c11.72-11.72 11.72-30.71 0-42.43-11.71-11.72-30.71-11.72-42.43 0L542 152.54V86.43c0-16.57-13.43-30-30-30s-30 13.43-30 30v66.11l-66.25-66.25c-11.72-11.72-30.71-11.72-42.43 0s-11.72 30.71 0 42.43L482 237.39v55.14c-46.58 7.01-89.56 28.59-123.49 62.52a224.468 224.468 0 0 0-19.59 22.38l-49.74-28.72-39.78-148.45c-4.29-16-20.74-25.5-36.74-21.21-16 4.29-25.5 20.74-21.21 36.74l24.25 90.49-57.25-33.05c-14.35-8.29-32.7-3.37-40.98 10.98-8.28 14.35-3.37 32.7 10.98 40.98l57.25 33.05-90.5 24.26c-16 4.29-25.5 20.74-21.21 36.74 3.59 13.4 15.71 22.24 28.96 22.24 2.57 0 5.18-0.33 7.78-1.03l148.45-39.78 50.07 28.91c-10.34 25.87-15.76 53.74-15.76 82.44 0 28.69 5.42 56.54 15.75 82.4l-50.06 28.9-148.45-39.78c-16.01-4.29-32.45 5.21-36.74 21.21-4.29 16 5.21 32.45 21.21 36.74l90.49 24.25-57.25 33.05c-14.35 8.28-19.27 26.63-10.98 40.98 5.56 9.62 15.64 15 26.01 15 5.09 0 10.25-1.3 14.97-4.02l57.25-33.05-24.25 90.49c-4.29 16 5.21 32.45 21.21 36.74 2.6 0.7 5.21 1.03 7.78 1.03 13.25 0 25.37-8.84 28.96-22.24l39.78-148.45 49.71-28.7c5.99 7.83 12.53 15.33 19.62 22.42 33.93 33.93 76.91 55.52 123.49 62.52v55.09L373.33 895.28c-11.72 11.71-11.72 30.71 0 42.43 11.72 11.72 30.71 11.72 42.43 0L482 871.46v66.11c0 16.57 13.43 30 30 30s30-13.43 30-30v-66.11l66.25 66.25c5.86 5.86 13.54 8.79 21.21 8.79s15.36-2.93 21.21-8.79c11.72-11.72 11.72-30.71 0-42.43L542 786.61v-54.15c49.26-5.83 94.85-27.84 130.47-63.46 6.25-6.25 12.07-12.81 17.46-19.63l44.89 25.92 39.78 148.45c3.59 13.4 15.71 22.24 28.96 22.24 2.57 0 5.18-0.33 7.78-1.03 16-4.29 25.5-20.74 21.21-36.74l-24.25-90.49 57.25 33.05c4.72 2.73 9.88 4.02 14.97 4.02 10.37 0 20.45-5.38 26.01-15 8.28-14.35 3.37-32.7-10.98-40.98l-57.25-33.05 90.5-24.25c16-4.29 25.5-20.74 21.21-36.75zM667.78 567.3c-3.46 9.51-7.8 18.6-12.9 27.19-5.16 8.69-11.1 16.85-17.74 24.4-24.17 27.48-57.48 46.73-95.14 52.96-8.63 1.43-17.48 2.18-26.51 2.18-1.17 0-2.33-0.02-3.49-0.04-10.26-0.22-20.29-1.4-30-3.45-35.99-7.59-67.6-27.17-90.47-54.34a163.017 163.017 0 0 1-17.18-24.72c-4.92-8.71-9.07-17.91-12.33-27.52-5.53-16.31-8.53-33.77-8.53-51.92 0-18.17 3.01-35.65 8.55-51.97 3.26-9.61 7.41-18.81 12.34-27.52 4.97-8.78 10.73-17.05 17.18-24.72 22.87-27.15 54.47-46.72 90.44-54.31 9.71-2.05 19.74-3.23 30-3.45 1.16-0.02 2.32-0.04 3.49-0.04 9.03 0 17.88 0.75 26.51 2.18 37.64 6.22 70.94 25.46 95.1 52.92a162.77 162.77 0 0 1 17.75 24.39c5.1 8.59 9.44 17.68 12.91 27.19 6.29 17.27 9.73 35.9 9.73 55.31 0 19.41-3.43 38.02-9.71 55.28z"
        p-id="7906"></path>
</svg>